<svg width="45" height="31" viewBox="0 0 45 31" fill="none" xmlns="http://www.w3.org/2000/svg">
<path d="M44.6699 15.9855L38.694 8.88913C38.5446 8.73973 38.3205 8.59033 38.0964 8.59033H29.8795V20.5421H0V25.7711C0 26.2192 0.298795 26.518 0.746988 26.518H5.07952C5.00482 26.7421 5.00482 27.0409 5.00482 27.265C5.00482 29.3566 6.64819 31 8.73976 31C10.8313 31 12.4747 29.3566 12.4747 27.265C12.4747 27.0409 12.4747 26.7421 12.4 26.518H32.9422C32.8675 26.7421 32.8675 27.0409 32.8675 27.265C32.8675 29.3566 34.5108 31 36.6024 31C38.694 31 40.3374 29.3566 40.3374 27.265C40.3374 27.0409 40.3374 26.7421 40.2627 26.518H44.0723C44.5205 26.518 44.8193 26.2192 44.8193 25.7711V16.5084V16.4337C44.8193 16.2843 44.7446 16.1349 44.6699 15.9855Z" fill="#FFE9D9"/>
<path d="M10.0073 1.26987C12.2483 0.373483 14.7134 0.448182 17.1037 0.522881C18.3736 0.59758 19.7182 0.672278 20.9134 1.12047C22.8555 1.86746 24.3495 3.51083 24.8724 5.453C24.9471 5.6771 25.0218 5.97589 25.1712 6.12529C25.3206 6.34939 25.6194 6.42409 25.8435 6.57348C26.5905 7.09637 26.8146 8.14216 26.4411 8.96384C26.2917 9.18794 26.1423 9.41204 26.1423 9.63613C26.0676 10.0096 26.3664 10.3084 26.4411 10.6072C26.6652 11.2048 26.5158 11.9518 25.9929 12.3253C25.7688 12.5494 25.47 12.6241 25.2459 12.8482C24.9471 13.0723 24.7977 13.4458 24.6483 13.7446C24.2748 14.4169 23.9013 15.0891 23.4531 15.7614C22.9302 16.5831 22.4073 17.4048 21.5109 17.9277C20.9134 18.3759 20.1664 18.5253 19.4194 18.6C17.1784 18.8241 14.8628 18.8241 12.6218 18.6747C11.6507 18.6 10.6049 18.6 9.63384 18.2265C7.54227 17.4795 6.123 15.4626 5.7495 13.2964C5.6748 12.9976 5.6748 12.6241 5.37601 12.4747C5.15191 12.3253 4.92782 12.4 4.70372 12.3253C4.25553 12.1759 4.03143 11.5783 4.10613 11.0554C4.18083 10.5325 4.55432 10.159 4.85312 9.78553C4.18083 9.41204 3.73264 8.59035 3.95673 7.76866C4.10613 6.72288 4.92782 6.87228 5.45071 6.34939C5.8989 5.90119 5.9736 4.85541 6.34709 4.25782C7.16878 2.83854 8.51336 1.79276 10.0073 1.26987Z" fill="#FFA8A8"/>
<path d="M44.6699 15.9855L38.694 8.88913C38.5446 8.73973 38.3205 8.59033 38.0964 8.59033H29.8795V20.5421H0V25.7711C0 26.2192 0.298795 26.518 0.746988 26.518H5.07952C5.00482 26.7421 5.00482 27.0409 5.00482 27.265C5.00482 29.3566 6.64819 31 8.73976 31C10.8313 31 12.4747 29.3566 12.4747 27.265C12.4747 27.0409 12.4747 26.7421 12.4 26.518H32.9422C32.8675 26.7421 32.8675 27.0409 32.8675 27.265C32.8675 29.3566 34.5108 31 36.6024 31C38.694 31 40.3374 29.3566 40.3374 27.265C40.3374 27.0409 40.3374 26.7421 40.2627 26.518H44.0723C44.5205 26.518 44.8193 26.2192 44.8193 25.7711V16.5084V16.4337C44.8193 16.2843 44.7446 16.1349 44.6699 15.9855ZM42.5036 15.6867H37.3494V13.0723H40.2627L42.5036 15.6867ZM8.73976 29.506C7.46988 29.506 6.4988 28.5349 6.4988 27.265C6.4988 26.8915 6.57349 26.518 6.79759 26.1446C7.17108 25.4723 7.91807 25.0241 8.73976 25.0241C8.96386 25.0241 9.11325 25.0241 9.33735 25.0988C9.71084 25.1735 10.0843 25.3976 10.3084 25.6964C10.4578 25.8458 10.5325 25.9952 10.6819 26.1446C10.906 26.518 10.9807 26.8915 10.9807 27.265C10.9807 28.5349 9.93494 29.506 8.73976 29.506ZM36.6024 29.506C35.3325 29.506 34.3614 28.5349 34.3614 27.265C34.3614 26.8915 34.4361 26.518 34.6602 26.1446C35.0337 25.4723 35.7807 25.0241 36.6024 25.0241C36.8265 25.0241 36.9759 25.0241 37.2 25.0988C37.5735 25.1735 37.947 25.3976 38.1711 25.6964C38.3205 25.8458 38.3952 25.9952 38.5446 26.1446C38.7687 26.518 38.8434 26.8915 38.8434 27.265C38.8434 28.5349 37.8723 29.506 36.6024 29.506ZM43.3253 25.0241H39.5904C39.5904 24.9494 39.5157 24.9494 39.5157 24.8747C39.441 24.8 39.3663 24.7253 39.2916 24.6506C39.2169 24.5759 39.2169 24.5759 39.1422 24.5012C39.0675 24.4265 38.9928 24.3518 38.9181 24.3518C38.8434 24.2771 38.8434 24.2771 38.7687 24.2771C38.694 24.2024 38.6193 24.2024 38.5446 24.1277C38.4699 24.1277 38.4699 24.053 38.3952 24.053C38.3205 23.9783 38.2458 23.9783 38.1711 23.9036C38.0964 23.9036 38.0217 23.8289 38.0217 23.8289C37.947 23.8289 37.8723 23.7542 37.7229 23.7542C37.6482 23.7542 37.5735 23.7542 37.5735 23.6795C37.4988 23.6795 37.3494 23.6048 37.2747 23.6048C37.2 23.6048 37.2 23.6048 37.1253 23.6048C36.9759 23.6048 36.8265 23.6048 36.6771 23.6048C36.5277 23.6048 36.3783 23.6048 36.2289 23.6048C36.1542 23.6048 36.1542 23.6048 36.0795 23.6048C36.0048 23.6048 35.8554 23.6048 35.7807 23.6795C35.706 23.6795 35.6313 23.6795 35.6313 23.7542C35.5566 23.7542 35.4819 23.8289 35.3325 23.8289C35.2578 23.8289 35.1831 23.9036 35.1831 23.9036C35.1084 23.9783 35.0337 23.9783 34.959 24.053C34.8843 24.053 34.8843 24.1277 34.8096 24.1277C34.7349 24.2024 34.6602 24.2024 34.5855 24.2771C34.5108 24.2771 34.5108 24.3518 34.4361 24.3518C34.3614 24.4265 34.2867 24.5012 34.2121 24.5012C34.1374 24.5759 34.1374 24.5759 34.0627 24.6506C33.988 24.7253 33.9133 24.8 33.8386 24.8747C33.8386 24.9494 33.7639 24.9494 33.7639 25.0241H11.7277C11.7277 24.9494 11.653 24.9494 11.653 24.8747C11.5783 24.8 11.5036 24.7253 11.4289 24.6506C11.3542 24.5759 11.3542 24.5759 11.2795 24.5012C11.2048 24.4265 11.1301 24.3518 11.0554 24.3518C10.9807 24.2771 10.9807 24.2771 10.906 24.2771C10.8313 24.2024 10.7566 24.2024 10.6819 24.1277C10.6072 24.1277 10.6072 24.053 10.5325 24.053C10.4578 23.9783 10.3831 23.9783 10.3084 23.9036C10.2337 23.9036 10.159 23.8289 10.159 23.8289C10.0843 23.8289 10.0096 23.7542 9.86024 23.7542C9.78554 23.7542 9.71084 23.7542 9.71084 23.6795C9.63615 23.6795 9.48675 23.6048 9.41205 23.6048C9.33735 23.6048 9.33735 23.6048 9.26265 23.6048C9.11325 23.6048 8.96386 23.6048 8.81446 23.6048C8.66506 23.6048 8.51566 23.6048 8.36627 23.6048C8.29157 23.6048 8.29157 23.6048 8.21687 23.6048C8.14217 23.6048 7.99277 23.6048 7.91807 23.6795C7.84337 23.6795 7.76867 23.6795 7.76867 23.7542C7.69398 23.7542 7.61928 23.8289 7.54458 23.8289C7.46988 23.8289 7.39518 23.9036 7.32048 23.9036C7.24578 23.9036 7.17108 23.9783 7.09639 23.9783C7.02169 23.9783 6.94699 24.053 6.87229 24.053C6.79759 24.1277 6.72289 24.1277 6.64819 24.2024C6.57349 24.2771 6.4988 24.2771 6.4988 24.3518C6.4241 24.4265 6.4241 24.4265 6.3494 24.5012C6.2747 24.5759 6.2 24.5759 6.2 24.6506C5.9759 24.7253 5.9759 24.8 5.90121 24.8747C5.82651 24.9494 5.82651 25.0241 5.75181 25.0241H1.49398V22.0361H30.6265C31.0747 22.0361 31.3735 21.7373 31.3735 21.2891V10.0843H37.7229L38.9928 11.5783H36.6024C36.1542 11.5783 35.8554 11.8771 35.8554 12.3253V16.4337C35.8554 16.8819 36.1542 17.1807 36.6024 17.1807H43.3253V25.0241Z" fill="black"/>
<path d="M25.5449 6.0506C24.8726 2.53976 21.81 0 18.1497 0H12.3232C8.73769 0 5.67504 2.53976 4.92805 6.0506C4.03166 6.3494 3.35938 7.17108 3.35938 8.14217C3.35938 8.73976 3.58347 9.26265 3.95697 9.63614C3.58347 10.0096 3.35938 10.5325 3.35938 11.1301C3.35938 12.1012 4.03166 12.9976 4.92805 13.2217C5.60034 16.7325 8.66299 19.2723 12.3232 19.2723H18.1497C21.7353 19.2723 24.7979 16.7325 25.5449 13.2217C26.4413 12.9229 27.1136 12.1012 27.1136 11.1301C27.1136 10.5325 26.8895 10.0096 26.516 9.63614C26.8895 9.26265 27.1136 8.73976 27.1136 8.14217C27.1883 7.17108 26.516 6.3494 25.5449 6.0506ZM12.3232 1.49398H18.1497C20.9136 1.49398 23.2293 3.36145 23.9762 5.9759H23.6774L23.5281 5.82651C23.2293 5.37831 22.7064 5.22892 22.1835 5.22892H21.7353C21.2124 5.22892 20.6895 5.45301 20.316 5.82651C20.2413 5.90121 20.0919 5.9759 19.9425 5.9759H19.4943C19.3449 5.9759 19.1955 5.90121 19.1208 5.82651C18.7473 5.37831 18.2244 5.22892 17.7015 5.22892H17.2534C16.7305 5.22892 16.2076 5.45301 15.8341 5.82651C15.7594 5.90121 15.61 5.9759 15.4606 5.9759H15.0124C14.863 5.9759 14.7136 5.90121 14.6389 5.82651C14.3401 5.37831 13.8172 5.22892 13.2943 5.22892H12.8461C12.3232 5.22892 11.8003 5.45301 11.4268 5.82651C11.3521 5.90121 11.2027 5.9759 11.0534 5.9759H10.6052C10.4558 5.9759 10.3064 5.90121 10.2317 5.82651C9.85817 5.37831 9.33528 5.22892 8.81239 5.22892H8.36419C7.8413 5.22892 7.31841 5.45301 6.94492 5.82651L6.79552 5.90121H6.57142C7.24371 3.36145 9.63407 1.49398 12.3232 1.49398ZM5.60034 7.39518H7.39311L7.9907 6.79759C8.1401 6.72289 8.2148 6.64819 8.36419 6.64819H8.81239C8.96179 6.64819 9.11118 6.72289 9.18588 6.79759C9.55938 7.17108 10.0823 7.39518 10.6052 7.39518H11.0534C11.5762 7.39518 12.0991 7.17108 12.4726 6.79759C12.5473 6.72289 12.6967 6.64819 12.8461 6.64819H13.2943C13.4437 6.64819 13.5931 6.72289 13.6678 6.79759C14.0413 7.17108 14.5642 7.39518 15.0871 7.39518H15.5353C16.0582 7.39518 16.5811 7.17108 16.9546 6.79759C17.0293 6.72289 17.1787 6.64819 17.2534 6.64819H17.7015C17.8509 6.64819 18.0003 6.72289 18.075 6.79759C18.4485 7.17108 18.9714 7.39518 19.4943 7.39518H19.9425C20.4654 7.39518 20.9883 7.17108 21.3618 6.79759C21.4365 6.72289 21.5859 6.64819 21.7353 6.64819H22.1835C22.3329 6.64819 22.4823 6.72289 22.557 6.79759L23.1546 7.39518H24.9473C25.3208 7.39518 25.6943 7.69398 25.6943 8.14217C25.6943 8.59036 25.3955 8.88916 24.9473 8.88916H5.60034C5.22685 8.88916 4.85335 8.59036 4.85335 8.14217C4.85335 7.69398 5.22685 7.39518 5.60034 7.39518ZM18.2244 17.7783H12.3979C9.63407 17.7783 7.31841 15.9108 6.57142 13.2964H24.0509C23.304 15.9855 20.9883 17.7783 18.2244 17.7783ZM24.9473 11.8771H5.60034C5.22685 11.8771 4.85335 11.5783 4.85335 11.1301C4.85335 10.6819 5.15215 10.3831 5.60034 10.3831H24.8726C25.2461 10.3831 25.6196 10.6819 25.6196 11.1301C25.6196 11.5783 25.3208 11.8771 24.9473 11.8771Z" fill="black"/>
</svg>
