<svg width="60" height="32" viewBox="0 0 60 32" fill="none" xmlns="http://www.w3.org/2000/svg">
<path d="M23.3253 21.694C22.5122 27.1353 19.5309 30.552 15.601 30.6152C14.7201 30.9948 13.7715 31.2479 12.8229 31.2479C9.0285 31.2479 5.23409 28.2109 2.32053 22.9595C-1.6094 15.8731 0.626592 5.0538 0.69435 4.61091C0.762107 4.23128 1.23641 3.9782 1.64295 4.16801C1.91398 4.29455 5.84391 5.9396 9.84159 8.78678C11.2645 5.9396 13.0939 3.21895 14.8556 1.13101C14.9912 1.00447 15.1944 0.87793 15.3977 0.87793C15.601 0.87793 15.8042 1.00447 15.9398 1.13101C17.0916 2.4597 18.7178 4.73745 20.073 7.14174C24.6127 4.35783 30.101 3.21895 30.7786 3.09241H30.8464C30.9141 3.09241 31.6595 3.02914 31.6595 3.66185C31.6595 4.04147 31.5239 13.279 26.9842 18.4672C25.7646 19.7959 24.5449 20.8715 23.3253 21.694Z" fill="#E9D4C6"/>
<path d="M23.3253 21.694C22.5122 27.1353 19.5309 30.552 15.601 30.6152C14.7201 30.9948 13.7715 31.2479 12.8229 31.2479C9.0285 31.2479 5.23409 28.2109 2.32053 22.9595C-1.6094 15.8731 0.626592 5.0538 0.69435 4.61091C0.762107 4.23128 1.23641 3.9782 1.64295 4.16801C1.91398 4.29455 5.84391 5.9396 9.84159 8.78678C11.2645 5.9396 13.0939 3.21895 14.8556 1.13101C14.9912 1.00447 15.1944 0.87793 15.3977 0.87793C15.601 0.87793 15.8042 1.00447 15.9398 1.13101C17.0916 2.4597 18.7178 4.73745 20.073 7.14174C24.6127 4.35783 30.101 3.21895 30.7786 3.09241H30.8464C30.9141 3.09241 31.6595 3.02914 31.6595 3.66185C31.6595 4.04147 31.5239 13.279 26.9842 18.4672C25.7646 19.7959 24.5449 20.8715 23.3253 21.694ZM25.9001 17.6447C28.3393 14.8608 29.4235 10.6849 29.8978 7.64791C28.5426 10.3686 26.3744 14.1648 23.5286 17.2651C23.5963 18.0876 23.5963 19.0367 23.5286 19.9225C24.3417 19.2897 25.087 18.5305 25.9001 17.6447ZM23.3253 15.4935C26.2389 11.9503 28.4071 7.64791 29.4912 5.30689C27.594 6.50903 24.6805 8.5337 21.9702 11.0013C22.58 12.3932 23.0543 14.0383 23.3253 15.4935ZM17.9047 22.39C18.7178 16.5691 17.2949 9.35622 15.4655 3.66185V3.59858C13.1617 10.7482 10.7902 22.9595 15.4655 28.9702C15.4655 28.9069 17.2949 26.8822 17.9047 22.39ZM3.4724 22.39C6.04718 27.0721 9.29953 29.7927 12.4841 29.9825C10.5869 29.0335 9.29953 27.2619 8.48645 25.3005C8.28317 24.731 4.21773 20.3653 1.50744 8.72351C1.16865 12.5198 1.16865 18.2141 3.4724 22.39ZM8.14766 12.8994C5.97942 10.1787 3.81119 7.96426 2.38828 6.57231C3.06586 9.67258 4.55652 15.8731 7.40233 21.1246C6.99578 17.8978 7.26681 15.4935 8.14766 12.8994ZM4.75979 7.14174C5.91167 8.34389 7.26681 9.79912 8.62196 11.4442C8.82523 10.938 9.0285 10.4318 9.23178 9.98893C7.74111 8.78678 6.11494 7.83772 4.75979 7.14174ZM8.62196 18.0876C8.62196 22.2002 9.70608 27.8946 13.907 29.16C9.63832 22.9595 11.5355 12.0769 13.636 4.99053C11.1967 8.5337 8.62196 13.8485 8.62196 18.0876ZM16.9561 29.16C22.2412 27.6415 23.2575 18.4672 21.1571 12.583C20.2085 9.98893 18.7856 7.39483 17.2949 5.11708C19.3276 12.2034 21.1571 22.9595 16.9561 29.16ZM21.4281 9.73585C23.3253 8.02753 25.358 6.50903 27.052 5.37016C25.1548 6.00287 22.7832 6.95193 20.7505 8.21735C20.7505 8.34389 21.1571 9.03987 21.4281 9.73585Z" fill="black"/>
<path d="M50.258 32H25.03C19.7626 32 15.5117 28.2039 15.5117 23.5C15.5117 18.7961 19.7626 15 25.03 15H50.258C55.5254 15 59.7763 18.7961 59.7763 23.5C59.7763 28.2039 55.5254 32 50.258 32Z" fill="#6DCBBA"/>
<path d="M22.8682 21.61C22.7435 21.654 22.5198 21.7127 22.1972 21.786C21.8745 21.852 21.6215 21.896 21.4382 21.918L21.3172 21.148C21.7132 21.0673 22.1238 20.9243 22.5492 20.719C22.9818 20.5063 23.3338 20.2863 23.6052 20.059H23.6162L24.4852 20.18V26.23L25.7392 26.351V27H21.5482V26.351L22.8682 26.241V21.61ZM29.4572 27.11C28.5186 27.11 27.7999 26.7983 27.3012 26.175C26.8099 25.5443 26.5642 24.69 26.5642 23.612C26.5642 22.8493 26.7072 22.204 26.9932 21.676C27.2792 21.1407 27.6569 20.741 28.1262 20.477C28.6029 20.2057 29.1309 20.07 29.7102 20.07C30.6562 20.07 31.3676 20.3707 31.8442 20.972C32.3209 21.566 32.5592 22.4093 32.5592 23.502C32.5592 24.2573 32.4199 24.91 32.1412 25.46C31.8699 26.0027 31.4996 26.4133 31.0302 26.692C30.5609 26.9707 30.0366 27.11 29.4572 27.11ZM29.5672 26.45C30.0292 26.45 30.3666 26.2153 30.5792 25.746C30.7992 25.2693 30.9092 24.5617 30.9092 23.623C30.9092 22.6257 30.8066 21.896 30.6012 21.434C30.4032 20.9647 30.0622 20.73 29.5782 20.73C28.6689 20.73 28.2142 21.6503 28.2142 23.491C28.2142 24.4737 28.3206 25.2143 28.5332 25.713C28.7532 26.2043 29.0979 26.45 29.5672 26.45ZM36.6867 27.11C35.7481 27.11 35.0294 26.7983 34.5307 26.175C34.0394 25.5443 33.7937 24.69 33.7937 23.612C33.7937 22.8493 33.9367 22.204 34.2227 21.676C34.5087 21.1407 34.8864 20.741 35.3557 20.477C35.8324 20.2057 36.3604 20.07 36.9397 20.07C37.8857 20.07 38.5971 20.3707 39.0737 20.972C39.5504 21.566 39.7887 22.4093 39.7887 23.502C39.7887 24.2573 39.6494 24.91 39.3707 25.46C39.0994 26.0027 38.7291 26.4133 38.2597 26.692C37.7904 26.9707 37.2661 27.11 36.6867 27.11ZM36.7967 26.45C37.2587 26.45 37.5961 26.2153 37.8087 25.746C38.0287 25.2693 38.1387 24.5617 38.1387 23.623C38.1387 22.6257 38.0361 21.896 37.8307 21.434C37.6327 20.9647 37.2917 20.73 36.8077 20.73C35.8984 20.73 35.4437 21.6503 35.4437 23.491C35.4437 24.4737 35.5501 25.2143 35.7627 25.713C35.9827 26.2043 36.3274 26.45 36.7967 26.45ZM47.4802 18.739H48.5032L44.9722 27H43.9602L47.4802 18.739ZM42.9922 23.535C42.5596 23.535 42.1892 23.4323 41.8812 23.227C41.5732 23.0217 41.3386 22.743 41.1772 22.391C41.0159 22.039 40.9352 21.6503 40.9352 21.225C40.9352 20.7337 41.0342 20.3083 41.2322 19.949C41.4302 19.5823 41.6979 19.3037 42.0352 19.113C42.3799 18.9223 42.7612 18.827 43.1792 18.827C43.8906 18.827 44.4112 19.0397 44.7412 19.465C45.0786 19.8903 45.2472 20.455 45.2472 21.159C45.2472 21.6503 45.1446 22.0757 44.9392 22.435C44.7412 22.7943 44.4699 23.0693 44.1252 23.26C43.7806 23.4433 43.4029 23.535 42.9922 23.535ZM43.0802 22.875C43.3882 22.875 43.6119 22.7283 43.7512 22.435C43.8979 22.1343 43.9712 21.7237 43.9712 21.203C43.9712 20.7043 43.9016 20.2973 43.7622 19.982C43.6302 19.6593 43.4139 19.498 43.1132 19.498C42.8126 19.498 42.5889 19.6447 42.4422 19.938C42.2956 20.2313 42.2222 20.6383 42.2222 21.159C42.2222 21.6283 42.2919 22.0317 42.4312 22.369C42.5706 22.7063 42.7869 22.875 43.0802 22.875ZM49.2952 26.846C48.8699 26.846 48.4996 26.7433 48.1842 26.538C47.8762 26.3253 47.6416 26.0467 47.4802 25.702C47.3189 25.35 47.2382 24.9613 47.2382 24.536C47.2382 24.0447 47.3372 23.6193 47.5352 23.26C47.7332 22.8933 48.0046 22.6147 48.3492 22.424C48.6939 22.2333 49.0752 22.138 49.4932 22.138C50.1972 22.138 50.7142 22.3507 51.0442 22.776C51.3816 23.2013 51.5502 23.766 51.5502 24.47C51.5502 24.9613 51.4476 25.3867 51.2422 25.746C51.0442 26.1053 50.7729 26.3803 50.4282 26.571C50.0836 26.7543 49.7059 26.846 49.2952 26.846ZM49.3832 26.175C49.6912 26.175 49.9149 26.0283 50.0542 25.735C50.2009 25.4417 50.2742 25.0347 50.2742 24.514C50.2742 24.0227 50.2046 23.6157 50.0652 23.293C49.9332 22.9703 49.7206 22.809 49.4272 22.809C49.1192 22.809 48.8919 22.9557 48.7452 23.249C48.5986 23.5423 48.5252 23.9493 48.5252 24.47C48.5252 24.9393 48.5949 25.3427 48.7342 25.68C48.8736 26.01 49.0899 26.175 49.3832 26.175Z" fill="black"/>
</svg>
