<svg width="60" height="60" viewBox="0 0 60 60" fill="none" xmlns="http://www.w3.org/2000/svg">
<path d="M57.5629 2.43827V57.5619H2.43924V2.43827H57.5629ZM57.5629 0.90918H2.43924C1.59825 0.90918 0.910156 1.59727 0.910156 2.43827V57.5619C0.910156 58.4029 1.59825 59.091 2.43924 59.091H57.5629C58.4039 59.091 59.092 58.4029 59.092 57.5619V2.43827C59.092 1.59727 58.4039 0.90918 57.5629 0.90918Z" fill="#F4976E"/>
<path d="M30.8053 17.8061C30.8053 17.1944 30.5759 16.6592 30.1936 16.277C30.5759 15.8947 30.8053 15.3595 30.8053 14.7479C30.8053 13.6775 30.1172 12.8365 29.1997 12.5307C28.4352 8.93734 25.3005 6.33789 21.5543 6.33789H15.5144C11.7681 6.33789 8.63348 9.0138 7.94539 12.5307C7.02793 12.8365 6.33984 13.6775 6.33984 14.7479C6.33984 15.3595 6.56921 15.8947 6.95148 16.277C6.56921 16.6592 6.33984 17.1944 6.33984 17.8061C6.33984 18.8764 7.02793 19.7174 7.94539 20.0232C8.63348 23.6166 11.8446 26.216 15.5144 26.216H21.5543C25.2241 26.216 28.4352 23.5401 29.1233 20.0232C30.1172 19.7174 30.8053 18.8 30.8053 17.8061ZM15.5144 7.86698H21.5543C24.3831 7.86698 26.8296 9.77834 27.5177 12.4542H27.2119L27.059 12.3013C26.6767 11.9191 26.1415 11.6897 25.6064 11.6897H25.1476C24.6125 11.6897 24.0773 11.9191 23.695 12.3013C23.6185 12.3778 23.4656 12.4542 23.3127 12.4542H22.854C22.7011 12.4542 22.5482 12.3778 22.4717 12.3013C22.0895 11.9191 21.5543 11.6897 21.0191 11.6897H20.5604C20.0252 11.6897 19.49 11.9191 19.1077 12.3013C19.0313 12.3778 18.8784 12.4542 18.7255 12.4542H18.2667C18.1138 12.4542 17.9609 12.3778 17.8845 12.3013C17.5022 11.9191 16.967 11.6897 16.4318 11.6897H15.9731C15.4379 11.6897 14.9027 11.9191 14.5205 12.3013C14.444 12.3778 14.2911 12.4542 14.1382 12.4542H13.6795C13.5266 12.4542 13.3737 12.3778 13.2972 12.3013C12.9149 11.9191 12.3797 11.6897 11.8446 11.6897H11.3858C10.8507 11.6897 10.3155 11.9191 9.9332 12.3013L9.78029 12.4542H9.47448C10.239 9.77834 12.6856 7.86698 15.5144 7.86698ZM8.63348 13.9833H10.4684L11.08 13.3717C11.1565 13.2952 11.3094 13.2188 11.4623 13.2188H11.921C12.0739 13.2188 12.2268 13.2952 12.3033 13.3717C12.6856 13.754 13.2207 13.9833 13.7559 13.9833H14.2146C14.7498 13.9833 15.285 13.754 15.6673 13.3717C15.7437 13.2952 15.8966 13.2188 16.0496 13.2188H16.5083C16.6612 13.2188 16.8141 13.2952 16.8906 13.3717C17.2728 13.754 17.808 13.9833 18.3432 13.9833H18.8019C19.3371 13.9833 19.8723 13.754 20.2545 13.3717C20.331 13.2952 20.4839 13.2188 20.6368 13.2188H21.0955C21.2485 13.2188 21.4014 13.2952 21.4778 13.3717C21.8601 13.754 22.3953 13.9833 22.9305 13.9833H23.3892C23.9244 13.9833 24.4595 13.754 24.8418 13.3717C24.9183 13.2952 25.0712 13.2188 25.2241 13.2188H25.6828C25.8357 13.2188 25.9886 13.2952 26.0651 13.3717L26.6767 13.9833H28.5116C28.9704 13.9833 29.2762 14.2892 29.2762 14.7479C29.2762 15.2066 28.9704 15.5124 28.5116 15.5124H8.63348C8.17475 15.5124 7.86893 15.2066 7.86893 14.7479C7.86893 14.2892 8.17475 13.9833 8.63348 13.9833ZM8.63348 17.0415H28.5116C28.9704 17.0415 29.2762 17.3473 29.2762 17.8061C29.2762 18.2648 28.9704 18.5706 28.5116 18.5706H8.63348C8.17475 18.5706 7.86893 18.2648 7.86893 17.8061C7.86893 17.3473 8.17475 17.0415 8.63348 17.0415ZM21.5543 24.687H15.5144C12.6856 24.687 10.239 22.7756 9.55093 20.0997H27.5942C26.8296 22.7756 24.3831 24.687 21.5543 24.687Z" fill="#F4976E"/>
<path d="M52.0569 40.0541C51.3688 36.4608 48.1577 33.8613 44.4879 33.8613H38.448C34.7782 33.8613 31.5671 36.5372 30.879 40.0541C29.9615 40.36 29.2734 41.201 29.2734 42.2713C29.2734 42.8829 29.5028 43.4181 29.8851 43.8004C29.5028 44.1827 29.2734 44.7179 29.2734 45.3295C29.2734 46.3999 29.9615 47.2409 30.879 47.5467C31.5671 51.14 34.7782 53.7395 38.448 53.7395H44.4879C48.1577 53.7395 51.3688 51.0636 52.0569 47.5467C52.9743 47.2409 53.6624 46.3999 53.6624 45.3295C53.6624 44.7179 53.433 44.1827 53.0508 43.8004C53.433 43.4181 53.6624 42.8829 53.6624 42.2713C53.7389 41.201 53.0508 40.36 52.0569 40.0541ZM38.448 35.3904H44.4879C47.3167 35.3904 49.7632 37.3018 50.4513 39.9777H50.1455L49.9926 39.8248C49.6103 39.4425 49.0751 39.2131 48.54 39.2131H48.0812C47.546 39.2131 47.0109 39.4425 46.6286 39.8248C46.5521 39.9012 46.3992 39.9777 46.2463 39.9777H45.7876C45.6347 39.9777 45.4818 39.9012 45.4053 39.8248C45.0231 39.4425 44.4879 39.2131 43.9527 39.2131H43.494C42.9588 39.2131 42.4236 39.4425 42.0413 39.8248C41.9649 39.9012 41.812 39.9777 41.6591 39.9777H41.2003C41.0474 39.9777 40.8945 39.9012 40.8181 39.8248C40.4358 39.4425 39.9006 39.2131 39.3654 39.2131H38.9067C38.3715 39.2131 37.8363 39.4425 37.4541 39.8248C37.3776 39.9012 37.2247 39.9777 37.0718 39.9777H36.6131C36.4602 39.9777 36.3072 39.9012 36.2308 39.8248C35.8485 39.4425 35.3133 39.2131 34.7782 39.2131H34.3194C33.7843 39.2131 33.2491 39.4425 32.8668 39.8248L32.7139 39.9777H32.4081C33.1726 37.3018 35.6192 35.3904 38.448 35.3904ZM31.5671 41.5068H33.402L34.0136 40.8951C34.0901 40.8187 34.243 40.7422 34.3959 40.7422H34.8546C35.0075 40.7422 35.1604 40.8187 35.2369 40.8951C35.6192 41.2774 36.1543 41.5068 36.6895 41.5068H37.1482C37.6834 41.5068 38.2186 41.2774 38.6009 40.8951C38.6773 40.8187 38.8302 40.7422 38.9832 40.7422H39.4419C39.5948 40.7422 39.7477 40.8187 39.8242 40.8951C40.2064 41.2774 40.7416 41.5068 41.2768 41.5068H41.7355C42.2707 41.5068 42.8059 41.2774 43.1881 40.8951C43.2646 40.8187 43.4175 40.7422 43.5704 40.7422H44.0291C44.1821 40.7422 44.335 40.8187 44.4114 40.8951C44.7937 41.2774 45.3289 41.5068 45.864 41.5068H46.3228C46.858 41.5068 47.3931 41.2774 47.7754 40.8951C47.8519 40.8187 48.0048 40.7422 48.1577 40.7422H48.6164C48.7693 40.7422 48.9222 40.8187 48.9987 40.8951L49.6103 41.5068H51.4452C51.9039 41.5068 52.2098 41.8126 52.2098 42.2713C52.2098 42.73 51.9039 43.0359 51.4452 43.0359H31.5671C31.1083 43.0359 30.8025 42.73 30.8025 42.2713C30.8025 41.8126 31.1083 41.5068 31.5671 41.5068ZM44.4879 52.2104H38.448C35.6192 52.2104 33.1726 50.299 32.4845 47.6231H50.5278C49.7632 50.299 47.3167 52.2104 44.4879 52.2104ZM51.4452 46.094H31.5671C31.1083 46.094 30.8025 45.7882 30.8025 45.3295C30.8025 44.8708 31.1083 44.5649 31.5671 44.5649H51.4452C51.9039 44.5649 52.2098 44.8708 52.2098 45.3295C52.2098 45.7882 51.8275 46.094 51.4452 46.094Z" fill="#F4976E"/>
<path d="M19.9471 30.879C19.6412 29.9615 18.8002 29.2734 17.7299 29.2734C17.1182 29.2734 16.5831 29.5028 16.2008 29.8851C15.8185 29.5028 15.2833 29.2734 14.6717 29.2734C13.6013 29.2734 12.7603 29.9615 12.4545 30.879C8.86117 31.5671 6.26172 34.7782 6.26172 38.448V44.4879C6.26172 48.1577 8.93762 51.3688 12.4545 52.0569C12.7603 52.9743 13.6013 53.6624 14.6717 53.6624C15.2833 53.6624 15.8185 53.433 16.2008 53.0508C16.5831 53.433 17.1182 53.6624 17.7299 53.6624C18.8002 53.6624 19.6412 52.9743 19.9471 52.0569C23.5404 51.3688 26.1399 48.1577 26.1399 44.4879V38.448C26.2163 34.7782 23.5404 31.5671 19.9471 30.879ZM7.86726 44.4879V38.448C7.86726 35.6192 9.77862 33.1726 12.4545 32.4845V32.7903L12.3016 32.9433C11.9193 33.3255 11.69 33.8607 11.69 34.3959V34.8546C11.69 35.3898 11.9193 35.925 12.3016 36.3072C12.3781 36.3837 12.4545 36.5366 12.4545 36.6895V37.1482C12.4545 37.3012 12.3781 37.4541 12.3016 37.5305C11.9193 37.9128 11.69 38.448 11.69 38.9832V39.4419C11.69 39.9771 11.9193 40.5122 12.3016 40.8945C12.3781 40.971 12.4545 41.1239 12.4545 41.2768V41.7355C12.4545 41.8884 12.3781 42.0413 12.3016 42.1178C11.9193 42.5001 11.69 43.0352 11.69 43.5704V44.0291C11.69 44.5643 11.9193 45.0995 12.3016 45.4818C12.3781 45.5582 12.4545 45.7111 12.4545 45.864V46.3228C12.4545 46.4757 12.3781 46.6286 12.3016 46.705C11.9193 47.0873 11.69 47.6225 11.69 48.1577V48.6164C11.69 49.1516 11.9193 49.6868 12.3016 50.069L12.4545 50.222V50.5278C9.77862 49.7632 7.86726 47.3167 7.86726 44.4879ZM14.7482 52.2098C14.2894 52.2098 13.9836 51.9039 13.9836 51.4452V49.6103L13.372 48.9987C13.2955 48.9222 13.2191 48.7693 13.2191 48.6164V48.1577C13.2191 48.0048 13.2955 47.8519 13.372 47.7754C13.7543 47.3931 13.9836 46.858 13.9836 46.3228V45.864C13.9836 45.3289 13.7543 44.7937 13.372 44.4114C13.2955 44.335 13.2191 44.1821 13.2191 44.0291V43.5704C13.2191 43.4175 13.2955 43.2646 13.372 43.1881C13.7543 42.8059 13.9836 42.2707 13.9836 41.7355V41.2768C13.9836 40.7416 13.7543 40.2064 13.372 39.8242C13.2955 39.7477 13.2191 39.5948 13.2191 39.4419V38.9832C13.2191 38.8302 13.2955 38.6773 13.372 38.6009C13.7543 38.2186 13.9836 37.6834 13.9836 37.1482V36.6895C13.9836 36.1543 13.7543 35.6192 13.372 35.2369C13.2955 35.1604 13.2191 35.0075 13.2191 34.8546V34.3959C13.2191 34.243 13.2955 34.0901 13.372 34.0136L13.9836 33.402V31.5671C13.9836 31.1083 14.2894 30.8025 14.7482 30.8025C15.2069 30.8025 15.5127 31.1083 15.5127 31.5671V51.4452C15.5127 51.8275 15.1304 52.2098 14.7482 52.2098ZM18.5709 51.4452C18.5709 51.9039 18.2651 52.2098 17.8063 52.2098C17.3476 52.2098 17.0418 51.9039 17.0418 51.4452V31.5671C17.0418 31.1083 17.3476 30.8025 17.8063 30.8025C18.2651 30.8025 18.5709 31.1083 18.5709 31.5671V51.4452ZM24.6872 44.4879C24.6872 47.3167 22.7759 49.7632 20.1 50.4513V32.4845C22.7759 33.1726 24.6872 35.6192 24.6872 38.448V44.4879Z" fill="#F4976E"/>
<path d="M47.4705 7.94343C47.1647 7.02598 46.3237 6.33789 45.2533 6.33789C44.6417 6.33789 44.1065 6.56725 43.7242 6.94953C43.342 6.56725 42.8068 6.33789 42.1951 6.33789C41.1248 6.33789 40.2838 7.02598 39.978 7.94343C36.3846 8.63152 33.7852 11.8426 33.7852 15.5124V21.5523C33.7852 25.2221 36.4611 28.4332 39.978 29.1213C40.2838 30.0388 41.1248 30.7269 42.1951 30.7269C42.8068 30.7269 43.342 30.4975 43.7242 30.1152C44.1065 30.4975 44.6417 30.7269 45.2533 30.7269C46.3237 30.7269 47.1647 30.0388 47.4705 29.1213C51.0639 28.4332 53.6633 25.2221 53.6633 21.5523V15.5124C53.7398 11.8426 51.0639 8.63152 47.4705 7.94343ZM35.3907 21.5523V15.5124C35.3907 12.6836 37.3021 10.2371 39.978 9.54898V27.5922C37.3021 26.8277 35.3907 24.3811 35.3907 21.5523ZM42.2716 29.2742C41.8129 29.2742 41.5071 28.9684 41.5071 28.5097V8.63152C41.5071 8.1728 41.8129 7.86698 42.2716 7.86698C42.7303 7.86698 43.0361 8.1728 43.0361 8.63152V28.5097C43.0361 28.8919 42.6539 29.2742 42.2716 29.2742ZM46.0943 26.6748V28.5097C46.0943 28.9684 45.7885 29.2742 45.3298 29.2742C44.871 29.2742 44.5652 28.9684 44.5652 28.5097V8.63152C44.5652 8.1728 44.871 7.86698 45.3298 7.86698C45.7885 7.86698 46.0943 8.1728 46.0943 8.63152V10.4664L46.706 11.0781C46.7824 11.1545 46.8589 11.3074 46.8589 11.4603V11.9191C46.8589 12.072 46.7824 12.2249 46.706 12.3013C46.3237 12.6836 46.0943 13.2188 46.0943 13.754V14.2127C46.0943 14.7479 46.3237 15.2831 46.706 15.6653C46.7824 15.7418 46.8589 15.8947 46.8589 16.0476V16.5063C46.8589 16.6592 46.7824 16.8121 46.706 16.8886C46.3237 17.2709 46.0943 17.8061 46.0943 18.3412V18.8C46.0943 19.3351 46.3237 19.8703 46.706 20.2526C46.7824 20.329 46.8589 20.482 46.8589 20.6349V21.0936C46.8589 21.2465 46.7824 21.3994 46.706 21.4759C46.3237 21.8581 46.0943 22.3933 46.0943 22.9285V23.3872C46.0943 23.9224 46.3237 24.4576 46.706 24.8399C46.7824 24.9163 46.8589 25.0692 46.8589 25.2221V25.6809C46.8589 25.8338 46.7824 25.9867 46.706 26.0631L46.0943 26.6748ZM52.2107 21.5523C52.2107 24.3811 50.2993 26.8277 47.6234 27.5158V27.2099L47.7763 27.057C48.1586 26.6748 48.388 26.1396 48.388 25.6044V25.1457C48.388 24.6105 48.1586 24.0753 47.7763 23.693C47.6999 23.6166 47.6234 23.4637 47.6234 23.3108V22.852C47.6234 22.6991 47.6999 22.5462 47.7763 22.4698C48.1586 22.0875 48.388 21.5523 48.388 21.0171V20.5584C48.388 20.0232 48.1586 19.4881 47.7763 19.1058C47.6999 19.0293 47.6234 18.8764 47.6234 18.7235V18.2648C47.6234 18.1119 47.6999 17.959 47.7763 17.8825C48.1586 17.5002 48.388 16.9651 48.388 16.4299V15.9711C48.388 15.436 48.1586 14.9008 47.7763 14.5185C47.6999 14.4421 47.6234 14.2891 47.6234 14.1362V13.6775C47.6234 13.5246 47.6999 13.3717 47.7763 13.2952C48.1586 12.913 48.388 12.3778 48.388 11.8426V11.3839C48.388 10.8487 48.1586 10.3135 47.7763 9.93125L47.6234 9.77834V9.47252C50.2993 10.1606 52.2107 12.6072 52.2107 15.436V21.5523Z" fill="#F4976E"/>
</svg>
