<svg width="71" height="57" viewBox="0 0 71 57" fill="none" xmlns="http://www.w3.org/2000/svg">
<path d="M44.7659 6.48216C44.1537 3.31726 41.2965 0.90918 38.0312 0.90918H32.6571C29.3918 0.90918 26.5346 3.31726 25.9224 6.48216C25.038 6.75736 24.4258 7.51419 24.4258 8.47742C24.4258 9.02783 24.6299 9.50945 24.97 9.85346C24.6299 10.1975 24.4258 10.6791 24.4258 11.2295C24.4258 12.1927 25.038 12.9496 25.8544 13.2248C26.4666 16.4585 29.3237 18.7977 32.589 18.7977H37.9632C41.2285 18.7977 44.0856 16.3897 44.6979 13.2248C45.5142 12.9496 46.1265 12.1927 46.1265 11.2295C46.1265 10.6791 45.9224 10.1975 45.5822 9.85346C45.9224 9.50945 46.1265 9.02783 46.1265 8.47742C46.1945 7.51419 45.5822 6.75736 44.7659 6.48216ZM32.6571 2.28522H38.0312C40.5482 2.28522 42.7251 4.00528 43.3373 6.41335H43.0652L42.9292 6.27575C42.589 5.93174 42.1809 5.72533 41.6367 5.72533H41.2285C40.7523 5.72533 40.2761 5.93174 39.936 6.27575C39.868 6.34455 39.7319 6.41335 39.5958 6.41335H39.1877C39.0516 6.41335 38.9156 6.34455 38.8475 6.27575C38.5074 5.93174 38.0992 5.72533 37.555 5.72533H37.1469C36.6707 5.72533 36.1945 5.93174 35.8544 6.27575C35.7863 6.34455 35.6503 6.41335 35.5142 6.41335H35.1061C34.97 6.41335 34.8339 6.34455 34.7659 6.27575C34.4258 5.93174 34.0176 5.72533 33.4734 5.72533H33.0652C32.589 5.72533 32.1129 5.93174 31.7727 6.27575C31.7047 6.34455 31.5686 6.41335 31.4326 6.41335H31.0244C30.8884 6.41335 30.7523 6.34455 30.6843 6.27575C30.3441 5.93174 29.936 5.72533 29.3918 5.72533H28.9836C28.5074 5.72533 28.0312 5.93174 27.6911 6.27575L27.555 6.41335H27.2829C27.9632 4.00528 30.1401 2.28522 32.6571 2.28522ZM26.4666 7.7894H28.0993L28.6435 7.23898C28.7795 7.17018 28.9156 7.10137 28.9836 7.10137H29.3918C29.5278 7.10137 29.6639 7.17018 29.7319 7.23898C30.072 7.58299 30.5482 7.7894 31.0244 7.7894H31.4326C31.9088 7.7894 32.385 7.58299 32.7251 7.23898C32.8612 7.17018 32.9972 7.10137 33.0652 7.10137H33.4734C33.6095 7.10137 33.7455 7.17018 33.8135 7.23898C34.1537 7.58299 34.6299 7.7894 35.1061 7.7894H35.5142C35.9904 7.7894 36.4666 7.58299 36.8067 7.23898C36.9428 7.17018 37.0788 7.10137 37.1469 7.10137H37.555C37.6911 7.10137 37.8271 7.17018 37.8952 7.23898C38.2353 7.58299 38.7115 7.7894 39.1877 7.7894H39.5958C40.072 7.7894 40.5482 7.58299 40.8884 7.23898C41.0244 7.17018 41.1605 7.10137 41.2285 7.10137H41.6367C41.7727 7.10137 41.9088 7.17018 41.9768 7.23898L42.521 7.7894H44.1537C44.5618 7.7894 44.8339 8.0646 44.8339 8.47742C44.8339 8.89023 44.5618 9.16544 44.1537 9.16544H26.4666C26.0584 9.16544 25.7863 8.89023 25.7863 8.47742C25.7863 8.0646 26.1265 7.7894 26.4666 7.7894ZM38.0312 17.4217H32.6571C30.1401 17.4217 27.9632 15.7016 27.351 13.2936H43.4054C42.7251 15.7016 40.5482 17.4217 38.0312 17.4217ZM44.1537 11.9175H26.4666C26.0584 11.9175 25.7863 11.6423 25.7863 11.2295C25.7863 10.8167 26.0584 10.5415 26.4666 10.5415H44.1537C44.5618 10.5415 44.8339 10.8167 44.8339 11.2295C44.8339 11.6423 44.5618 11.9175 44.1537 11.9175Z" fill="#E67285"/>
<path d="M20.887 44.0476C20.2748 40.8139 17.4176 38.4746 14.1523 38.4746H8.77817C5.51286 38.4746 2.65572 40.8827 2.04347 44.0476C1.15912 44.3228 0.546875 45.0796 0.546875 46.0428C0.546875 46.5933 0.750957 47.0749 1.09109 47.4189C0.750957 47.7629 0.546875 48.2445 0.546875 48.7949C0.546875 49.7582 1.15912 50.515 1.97545 50.7902C2.58769 54.0239 5.44483 56.3632 8.71014 56.3632H14.0843C17.3496 56.3632 20.2067 53.9551 20.819 50.7902C21.6353 50.515 22.2476 49.7582 22.2476 48.7949C22.2476 48.2445 22.0435 47.7629 21.7033 47.4189C22.0435 47.0749 22.2476 46.5933 22.2476 46.0428C22.3156 45.0796 21.7033 44.3228 20.887 44.0476ZM8.77817 39.8507H14.1523C16.6693 39.8507 18.8462 41.5707 19.4584 43.9788H19.1863L19.0503 43.8412C18.7101 43.4972 18.2339 43.2908 17.7578 43.2908H17.3496C16.8734 43.2908 16.3972 43.4972 16.0571 43.8412C15.989 43.91 15.853 43.9788 15.7169 43.9788H15.3088C15.1727 43.9788 15.0367 43.91 14.9686 43.8412C14.6285 43.4972 14.1523 43.2908 13.6761 43.2908H13.268C12.7918 43.2908 12.3156 43.4972 11.9754 43.8412C11.9074 43.91 11.7714 43.9788 11.6353 43.9788H11.2271C11.0911 43.9788 10.955 43.91 10.887 43.8412C10.5469 43.4972 10.0707 43.2908 9.59449 43.2908H9.18633C8.71014 43.2908 8.23395 43.4972 7.89381 43.8412C7.82579 43.91 7.68973 43.9788 7.55368 43.9788H7.14551C7.00946 43.9788 6.8734 43.91 6.80538 43.8412C6.46524 43.4972 5.98905 43.2908 5.51286 43.2908H5.1047C4.62851 43.2908 4.15232 43.4972 3.81218 43.8412L3.67613 43.9788H3.40402C4.08429 41.5707 6.26116 39.8507 8.77817 39.8507ZM2.58769 45.3548H4.22034L4.76456 44.8044C4.83259 44.7356 4.96864 44.6668 5.1047 44.6668H5.51286C5.64892 44.6668 5.78497 44.7356 5.853 44.8044C6.19313 45.1484 6.66932 45.3548 7.14551 45.3548H7.55368C8.02987 45.3548 8.50606 45.1484 8.84619 44.8044C8.91422 44.7356 9.05028 44.6668 9.18633 44.6668H9.59449C9.73055 44.6668 9.8666 44.7356 9.93463 44.8044C10.2748 45.1484 10.751 45.3548 11.2271 45.3548H11.6353C12.1115 45.3548 12.5877 45.1484 12.9278 44.8044C12.9959 44.7356 13.1319 44.6668 13.268 44.6668H13.6761C13.8122 44.6668 13.9482 44.7356 14.0163 44.8044C14.3564 45.1484 14.8326 45.3548 15.3088 45.3548H15.7169C16.1931 45.3548 16.6693 45.1484 17.0095 44.8044C17.0775 44.7356 17.2135 44.6668 17.3496 44.6668H17.7578C17.8938 44.6668 18.0299 44.7356 18.0979 44.8044L18.6421 45.3548H20.2748C20.6829 45.3548 20.955 45.63 20.955 46.0428C20.955 46.4557 20.6829 46.7309 20.2748 46.7309H2.58769C2.17953 46.7309 1.90742 46.4557 1.90742 46.0428C1.90742 45.63 2.17953 45.3548 2.58769 45.3548ZM14.0843 54.9871H8.71014C6.19313 54.9871 4.01626 53.2671 3.40402 50.859H19.4584C18.7782 53.2671 16.6013 54.9871 14.0843 54.9871ZM20.2748 49.483H2.58769C2.17953 49.483 1.90742 49.2077 1.90742 48.7949C1.90742 48.3821 2.17953 48.1069 2.58769 48.1069H20.2748C20.6829 48.1069 20.955 48.3821 20.955 48.7949C20.955 49.1389 20.6829 49.483 20.2748 49.483Z" fill="#E67285"/>
<path d="M44.9674 44.0476C44.3552 40.8139 41.498 38.4746 38.2327 38.4746H32.8586C29.5933 38.4746 26.7361 40.8827 26.1239 44.0476C25.3076 44.3228 24.6953 45.0796 24.6953 46.0428C24.6953 46.5933 24.8994 47.0749 25.2395 47.4189C24.8994 47.7629 24.6953 48.2445 24.6953 48.7949C24.6953 49.7582 25.3076 50.515 26.1239 50.7902C26.7361 54.0239 29.5933 56.3632 32.8586 56.3632H38.2327C41.498 56.3632 44.3552 53.9551 44.9674 50.7902C45.7837 50.515 46.396 49.7582 46.396 48.7949C46.396 48.2445 46.1919 47.7629 45.8518 47.4189C46.1919 47.0749 46.396 46.5933 46.396 46.0428C46.396 45.0796 45.7837 44.3228 44.9674 44.0476ZM32.8586 39.8507H38.2327C40.7497 39.8507 42.9266 41.5707 43.5388 43.9788H43.2667L43.1307 43.8412C42.7905 43.4972 42.3144 43.2908 41.8382 43.2908H41.43C40.9538 43.2908 40.4776 43.4972 40.1375 43.8412C40.0695 43.91 39.9334 43.9788 39.7973 43.9788H39.3892C39.2531 43.9788 39.1171 43.91 39.049 43.8412C38.7089 43.4972 38.2327 43.2908 37.7565 43.2908H37.3484C36.8722 43.2908 36.396 43.4972 36.0559 43.8412C35.9878 43.91 35.8518 43.9788 35.7157 43.9788H35.3076C35.1715 43.9788 35.0354 43.91 34.9674 43.8412C34.6273 43.4972 34.1511 43.2908 33.6749 43.2908H33.2667C32.7905 43.2908 32.3144 43.4972 31.9742 43.8412C31.9062 43.91 31.7701 43.9788 31.6341 43.9788H31.2259C31.0899 43.9788 30.9538 43.91 30.8858 43.8412C30.5457 43.4972 30.0695 43.2908 29.5933 43.2908H29.1851C28.7089 43.2908 28.2327 43.4972 27.8926 43.8412L27.7565 43.9788H27.4844C28.1647 41.5707 30.3416 39.8507 32.8586 39.8507ZM26.6681 45.3548H28.3008L28.845 44.8044C28.913 44.7356 29.0491 44.6668 29.1851 44.6668H29.5933C29.7293 44.6668 29.8654 44.7356 29.9334 44.8044C30.2735 45.1484 30.7497 45.3548 31.2259 45.3548H31.6341C32.1103 45.3548 32.5865 45.1484 32.9266 44.8044C32.9946 44.7356 33.1307 44.6668 33.2667 44.6668H33.6749C33.811 44.6668 33.947 44.7356 34.015 44.8044C34.3552 45.1484 34.8314 45.3548 35.3076 45.3548H35.7157C36.1919 45.3548 36.6681 45.1484 37.0082 44.8044C37.0763 44.7356 37.2123 44.6668 37.3484 44.6668H37.7565C37.8926 44.6668 38.0286 44.7356 38.0967 44.8044C38.4368 45.1484 38.913 45.3548 39.3892 45.3548H39.7973C40.2735 45.3548 40.7497 45.1484 41.0899 44.8044C41.1579 44.7356 41.2939 44.6668 41.43 44.6668H41.8382C41.9742 44.6668 42.1103 44.7356 42.1783 44.8044L42.7225 45.3548H44.3552C44.7633 45.3548 45.0354 45.63 45.0354 46.0428C45.0354 46.4557 44.7633 46.7309 44.3552 46.7309H26.6681C26.2599 46.7309 25.9878 46.4557 25.9878 46.0428C25.9878 45.63 26.328 45.3548 26.6681 45.3548ZM38.2327 54.9871H32.8586C30.3416 54.9871 28.1647 53.2671 27.5525 50.859H43.6069C42.9266 53.2671 40.7497 54.9871 38.2327 54.9871ZM44.3552 49.483H26.6681C26.2599 49.483 25.9878 49.2077 25.9878 48.7949C25.9878 48.3821 26.2599 48.1069 26.6681 48.1069H44.3552C44.7633 48.1069 45.0354 48.3821 45.0354 48.7949C45.0354 49.1389 44.7633 49.483 44.3552 49.483Z" fill="#E67285"/>
<path d="M69.0494 44.0476C68.4372 40.8139 65.5801 38.4746 62.3148 38.4746H56.9406C53.6753 38.4746 50.8182 40.8827 50.2059 44.0476C49.3896 44.3228 48.7773 45.0796 48.7773 46.0428C48.7773 46.5933 48.9814 47.0749 49.3216 47.4189C48.9814 47.7629 48.7773 48.2445 48.7773 48.7949C48.7773 49.7582 49.3896 50.515 50.2059 50.7902C50.8182 54.0239 53.6753 56.3632 56.9406 56.3632H62.3148C65.5801 56.3632 68.4372 53.9551 69.0494 50.7902C69.8658 50.515 70.478 49.7582 70.478 48.7949C70.478 48.2445 70.2739 47.7629 69.9338 47.4189C70.2739 47.0749 70.478 46.5933 70.478 46.0428C70.546 45.0796 69.9338 44.3228 69.0494 44.0476ZM56.9406 39.8507H62.3148C64.8318 39.8507 67.0086 41.5707 67.6209 43.9788H67.3488L67.2127 43.8412C66.8726 43.4972 66.3964 43.2908 65.9202 43.2908H65.512C65.0358 43.2908 64.5597 43.4972 64.2195 43.8412C64.1515 43.91 64.0154 43.9788 63.8794 43.9788H63.4712C63.3352 43.9788 63.1991 43.91 63.1311 43.8412C62.7909 43.4972 62.3148 43.2908 61.8386 43.2908H61.4304C60.9542 43.2908 60.478 43.4972 60.1379 43.8412C60.0699 43.91 59.9338 43.9788 59.7977 43.9788H59.3896C59.2535 43.9788 59.1175 43.91 59.0494 43.8412C58.7093 43.4972 58.2331 43.2908 57.7569 43.2908H57.3488C56.8726 43.2908 56.3964 43.4972 56.0563 43.8412C55.9882 43.91 55.8522 43.9788 55.7161 43.9788H55.308C55.1719 43.9788 55.0358 43.91 54.9678 43.8412C54.6277 43.4972 54.1515 43.2908 53.6753 43.2908H53.2671C52.7909 43.2908 52.3148 43.4972 51.9746 43.8412L51.8386 43.9788H51.5665C52.2467 41.5707 54.4236 39.8507 56.9406 39.8507ZM50.8182 45.3548H52.4508L52.995 44.8044C53.0631 44.7356 53.1991 44.6668 53.3352 44.6668H53.7433C53.8794 44.6668 54.0154 44.7356 54.0835 44.8044C54.4236 45.1484 54.8998 45.3548 55.376 45.3548H55.7841C56.2603 45.3548 56.7365 45.1484 57.0767 44.8044C57.1447 44.7356 57.2807 44.6668 57.4168 44.6668H57.825C57.961 44.6668 58.0971 44.7356 58.1651 44.8044C58.5052 45.1484 58.9814 45.3548 59.4576 45.3548H59.8658C60.342 45.3548 60.8182 45.1484 61.1583 44.8044C61.2263 44.7356 61.3624 44.6668 61.4984 44.6668H61.9066C62.0426 44.6668 62.1787 44.7356 62.2467 44.8044C62.5869 45.1484 63.0631 45.3548 63.5392 45.3548H63.9474C64.4236 45.3548 64.8998 45.1484 65.2399 44.8044C65.308 44.7356 65.444 44.6668 65.5801 44.6668H65.9882C66.1243 44.6668 66.2603 44.7356 66.3284 44.8044L66.8726 45.3548H68.5052C68.9134 45.3548 69.1855 45.63 69.1855 46.0428C69.1855 46.4557 68.9134 46.7309 68.5052 46.7309H50.8182C50.41 46.7309 50.1379 46.4557 50.1379 46.0428C50.1379 45.63 50.41 45.3548 50.8182 45.3548ZM62.3148 54.9871H56.9406C54.4236 54.9871 52.2467 53.2671 51.6345 50.859H67.6889C67.0086 53.2671 64.8318 54.9871 62.3148 54.9871ZM68.5052 49.483H50.8182C50.41 49.483 50.1379 49.2077 50.1379 48.7949C50.1379 48.3821 50.41 48.1069 50.8182 48.1069H68.5052C68.9134 48.1069 69.1855 48.3821 69.1855 48.7949C69.1855 49.1389 68.8454 49.483 68.5052 49.483Z" fill="#E67285"/>
<path d="M32.9284 25.2654C32.3161 22.0317 29.459 19.6924 26.1937 19.6924H20.8195C17.5542 19.6924 14.6971 22.1005 14.0848 25.2654C13.2685 25.5406 12.6562 26.2974 12.6562 27.2606C12.6562 27.811 12.8603 28.2927 13.2005 28.6367C12.8603 28.9807 12.6562 29.4623 12.6562 30.0127C12.6562 30.9759 13.2685 31.7328 14.0848 32.008C14.6971 35.2417 17.5542 37.5809 20.8195 37.5809H26.1937C29.459 37.5809 32.3161 35.1729 32.9284 32.008C33.7447 31.7328 34.3569 30.9759 34.3569 30.0127C34.3569 29.4623 34.1528 28.9807 33.8127 28.6367C34.1528 28.2927 34.3569 27.811 34.3569 27.2606C34.3569 26.2974 33.7447 25.4718 32.9284 25.2654ZM20.8195 20.9996H26.1937C28.7107 20.9996 30.8875 22.7197 31.4998 25.1278H31.2277L31.0916 24.9901C30.7515 24.6461 30.2753 24.4397 29.7991 24.4397H29.3909C28.9148 24.4397 28.4386 24.6461 28.0984 24.9901C28.0304 25.059 27.8943 25.1278 27.7583 25.1278H27.3501C27.2141 25.1278 27.078 25.059 27.01 24.9901C26.6699 24.6461 26.1937 24.4397 25.7175 24.4397H25.3093C24.8331 24.4397 24.3569 24.6461 24.0168 24.9901C23.9488 25.059 23.8127 25.1278 23.6767 25.1278H23.2685C23.1324 25.1278 22.9964 25.059 22.9284 24.9901C22.5882 24.6461 22.112 24.4397 21.6358 24.4397H21.2277C20.7515 24.4397 20.2753 24.6461 19.9352 24.9901C19.8671 25.059 19.7311 25.1278 19.595 25.1278H19.1869C19.0508 25.1278 18.9148 25.059 18.8467 24.9901C18.5066 24.6461 18.0304 24.4397 17.5542 24.4397H17.146C16.6699 24.4397 16.1937 24.6461 15.8535 24.9901L15.7175 25.1278H15.4454C16.1256 22.7197 18.3025 20.9996 20.8195 20.9996ZM14.629 26.5038H16.2617L16.8059 25.9534C16.8739 25.8846 17.01 25.8158 17.146 25.8158H17.5542C17.6903 25.8158 17.8263 25.8846 17.8943 25.9534C18.2345 26.2974 18.7107 26.5038 19.1869 26.5038H19.595C20.0712 26.5038 20.5474 26.2974 20.8875 25.9534C20.9556 25.8846 21.0916 25.8158 21.2277 25.8158H21.6358C21.7719 25.8158 21.9079 25.8846 21.976 25.9534C22.3161 26.2974 22.7923 26.5038 23.2685 26.5038H23.6767C24.1528 26.5038 24.629 26.2974 24.9692 25.9534C25.0372 25.8846 25.1733 25.8158 25.3093 25.8158H25.7175C25.8535 25.8158 25.9896 25.8846 26.0576 25.9534C26.3977 26.2974 26.8739 26.5038 27.3501 26.5038H27.7583C28.2345 26.5038 28.7107 26.2974 29.0508 25.9534C29.1188 25.8846 29.2549 25.8158 29.3909 25.8158H29.7991C29.9352 25.8158 30.0712 25.8846 30.1392 25.9534L30.6835 26.5038H32.3161C32.7243 26.5038 32.9964 26.779 32.9964 27.1918C32.9964 27.6046 32.7243 27.8798 32.3161 27.8798H14.629C14.2209 27.8798 13.9488 27.6046 13.9488 27.1918C13.9488 26.779 14.2889 26.5038 14.629 26.5038ZM26.1937 36.1361H20.8195C18.3025 36.1361 16.1256 34.416 15.5134 32.008H31.5678C30.8195 34.416 28.7107 36.1361 26.1937 36.1361ZM32.3161 30.6319H14.629C14.2209 30.6319 13.9488 30.3567 13.9488 29.9439C13.9488 29.5311 14.2209 29.2559 14.629 29.2559H32.3161C32.7243 29.2559 32.9964 29.5311 32.9964 29.9439C32.9964 30.3567 32.7243 30.6319 32.3161 30.6319Z" fill="#E67285"/>
<path d="M57.0104 25.2654C56.3981 22.0317 53.541 19.6924 50.2757 19.6924H44.9015C41.6362 19.6924 38.7791 22.1005 38.1669 25.2654C37.3505 25.5406 36.7383 26.2974 36.7383 27.2606C36.7383 27.811 36.9424 28.2927 37.2825 28.6367C36.9424 28.9807 36.7383 29.4623 36.7383 30.0127C36.7383 30.9759 37.3505 31.7328 38.1669 32.008C38.7791 35.2417 41.6362 37.5809 44.9015 37.5809H50.2757C53.541 37.5809 56.3981 35.1729 57.0104 32.008C57.8267 31.7328 58.439 30.9759 58.439 30.0127C58.439 29.4623 58.2349 28.9807 57.8947 28.6367C58.2349 28.2927 58.439 27.811 58.439 27.2606C58.439 26.2974 57.8267 25.4718 57.0104 25.2654ZM44.9015 20.9996H50.2757C52.7927 20.9996 54.9696 22.7197 55.5818 25.1278H55.3097L55.1737 24.9901C54.8335 24.6461 54.3573 24.4397 53.8811 24.4397H53.473C52.9968 24.4397 52.5206 24.6461 52.1805 24.9901C52.1124 25.059 51.9764 25.1278 51.8403 25.1278H51.4322C51.2961 25.1278 51.1601 25.059 51.092 24.9901C50.7519 24.6461 50.2757 24.4397 49.7995 24.4397H49.3913C48.9152 24.4397 48.439 24.6461 48.0988 24.9901C48.0308 25.059 47.8947 25.1278 47.7587 25.1278H47.3505C47.2145 25.1278 47.0784 25.059 47.0104 24.9901C46.6703 24.6461 46.1941 24.4397 45.7179 24.4397H45.3097C44.8335 24.4397 44.3573 24.6461 44.0172 24.9901C43.9492 25.059 43.8131 25.1278 43.6771 25.1278H43.2689C43.1328 25.1278 42.9968 25.059 42.9288 24.9901C42.5886 24.6461 42.1124 24.4397 41.6362 24.4397H41.2281C40.7519 24.4397 40.2757 24.6461 39.9356 24.9901L39.7995 25.1278H39.5274C40.2077 22.7197 42.3845 20.9996 44.9015 20.9996ZM38.7111 26.5038H40.3437L40.8879 25.9534C40.956 25.8846 41.092 25.8158 41.2281 25.8158H41.6362C41.7723 25.8158 41.9083 25.8846 41.9764 25.9534C42.3165 26.2974 42.7927 26.5038 43.2689 26.5038H43.6771C44.1532 26.5038 44.6294 26.2974 44.9696 25.9534C45.0376 25.8846 45.1737 25.8158 45.3097 25.8158H45.7179C45.8539 25.8158 45.99 25.8846 46.058 25.9534C46.3981 26.2974 46.8743 26.5038 47.3505 26.5038H47.7587C48.2349 26.5038 48.7111 26.2974 49.0512 25.9534C49.1192 25.8846 49.2553 25.8158 49.3913 25.8158H49.7995C49.9356 25.8158 50.0716 25.8846 50.1396 25.9534C50.4798 26.2974 50.956 26.5038 51.4322 26.5038H51.8403C52.3165 26.5038 52.7927 26.2974 53.1328 25.9534C53.2009 25.8846 53.3369 25.8158 53.473 25.8158H53.8811C54.0172 25.8158 54.1532 25.8846 54.2213 25.9534L54.7655 26.5038H56.3981C56.8063 26.5038 57.0784 26.779 57.0784 27.1918C57.0784 27.6046 56.8063 27.8798 56.3981 27.8798H38.7111C38.3029 27.8798 38.0308 27.6046 38.0308 27.1918C38.0308 26.779 38.3709 26.5038 38.7111 26.5038ZM50.2757 36.1361H44.9015C42.3845 36.1361 40.2077 34.416 39.5954 32.008H55.6498C54.9696 34.416 52.7927 36.1361 50.2757 36.1361ZM56.3981 30.6319H38.7111C38.3029 30.6319 38.0308 30.3567 38.0308 29.9439C38.0308 29.5311 38.3029 29.2559 38.7111 29.2559H56.3981C56.8063 29.2559 57.0784 29.5311 57.0784 29.9439C57.0784 30.3567 56.8063 30.6319 56.3981 30.6319Z" fill="#E67285"/>
</svg>
