<svg width="74" height="75" viewBox="0 0 74 75" fill="none" xmlns="http://www.w3.org/2000/svg">
<path d="M58.4918 27.2789C59.1553 22.1769 56.929 17.5234 52.5435 14.8356C52.141 14.585 51.7218 14.3459 51.2973 14.1142C44.5514 10.4324 36.498 9.70635 29.2023 12.1214C21.8076 14.5689 15.9308 19.833 12.654 26.9433C6.83541 39.5805 11.3376 54.6923 23.1263 62.094C23.6239 62.4069 24.1282 62.7028 24.6342 62.9789C24.999 63.1781 25.3648 63.3661 25.7283 63.5438C30.351 65.8088 35.6599 65.1737 39.5817 61.8862C43.7037 58.4305 45.3287 53.0302 43.8219 47.7913C43.8219 47.7913 43.8219 47.7913 43.8214 47.7898C43.1648 45.5154 43.2799 43.541 44.1632 41.9226C45.0438 40.3092 46.6405 39.1472 48.91 38.4686C54.125 36.9062 57.7965 32.6189 58.4918 27.2789ZM42.1273 40.8114C40.957 42.9557 40.7725 45.5916 41.5936 48.4344C42.8423 52.7775 41.5 57.251 38.0918 60.1079C34.8336 62.839 30.5937 63.3453 26.747 61.46C25.949 61.071 25.1436 60.6224 24.3606 60.1305C13.5552 53.3454 9.42877 39.4954 14.7614 27.9141C17.7656 21.3931 23.1533 16.5665 29.9309 14.3228C36.6188 12.1089 44.0019 12.7749 50.1862 16.1501C50.5709 16.3601 50.9513 16.5755 51.3246 16.8089C54.9147 19.0083 56.7342 22.8115 56.191 26.9792C55.617 31.3997 52.5715 34.9513 48.2454 36.2467C45.4103 37.094 43.2949 38.6721 42.1273 40.8114Z" fill="#9FCE9E"/>
<path d="M49.3906 17.6078C47.1638 16.3924 44.3625 17.2156 43.1471 19.4423C41.9318 21.6691 42.7555 24.4695 44.9823 25.6848C47.209 26.9002 50.0088 26.0775 51.2242 23.8507C52.4395 21.6239 51.6174 18.8231 49.3906 17.6078ZM46.0934 23.6489C44.989 23.0461 44.5803 21.658 45.183 20.5535C45.7858 19.4491 47.175 19.0409 48.2794 19.6437C49.3839 20.2465 49.7911 21.6351 49.1883 22.7395C48.5855 23.844 47.1979 24.2517 46.0934 23.6489Z" fill="#9FCE9E"/>
<path d="M30.9453 51.4027C28.7185 50.1873 25.9177 51.0095 24.7024 53.2363C23.487 55.4631 24.3102 58.2644 26.5369 59.4797C28.7637 60.6951 31.5641 59.8714 32.7794 57.6446C33.9948 55.4178 33.1721 52.618 30.9453 51.4027ZM27.6481 57.4438C26.5437 56.841 26.1355 55.4519 26.7383 54.3474C27.3411 53.243 28.7297 52.8358 29.8341 53.4386C30.9386 54.0414 31.3463 55.429 30.7435 56.5334C30.1407 57.6379 28.7526 58.0466 27.6481 57.4438Z" fill="#9FCE9E"/>
<path d="M25.107 31.5255C26.3223 29.2987 25.5002 26.4979 23.2734 25.2826C21.0466 24.0672 18.2453 24.8904 17.0299 27.1172C15.8146 29.3439 16.6383 32.1443 18.8651 33.3596C21.0919 34.575 23.8917 33.7523 25.107 31.5255ZM19.9762 31.3237C18.8718 30.7209 18.4631 29.3328 19.0659 28.2283C19.6686 27.1239 21.0578 26.7157 22.1622 27.3185C23.2667 27.9213 23.6739 29.3099 23.0711 30.4143C22.4683 31.5188 21.0807 31.9265 19.9762 31.3237Z" fill="#9FCE9E"/>
<path d="M18.1997 39.5556C15.7661 40.2724 14.3679 42.8342 15.0827 45.2667C15.4285 46.4463 16.2145 47.4198 17.2931 48.0085C18.3717 48.5972 19.6152 48.7301 20.7938 48.3838C21.9724 48.0374 22.9464 47.2529 23.535 46.1744C24.1237 45.0958 24.2582 43.8518 23.9108 42.6727C23.1956 40.2386 20.6338 38.8404 18.1997 39.5556ZM20.14 46.1587C18.9691 46.5027 17.6519 45.7838 17.3078 44.6129C16.9533 43.4066 17.6467 42.1362 18.8536 41.7807C20.0603 41.4278 21.3298 42.1206 21.6858 43.3265C21.8578 43.9119 21.791 44.5284 21.4991 45.0632C21.2072 45.598 20.7255 45.9866 20.14 46.1587Z" fill="#9FCE9E"/>
<path d="M31.2388 15.6614C28.8063 16.3762 27.4081 18.938 28.1218 21.3725C28.4794 22.5896 29.2994 23.548 30.3333 24.1123C31.3671 24.6766 32.6158 24.8472 33.8329 24.4896C35.0125 24.1438 35.986 23.3578 36.5746 22.2792C37.1633 21.2006 37.2972 19.9576 36.9499 18.7785C36.2583 16.4192 33.5971 14.9668 31.2388 15.6614ZM33.1791 22.2645C31.9712 22.6194 30.7018 21.9265 30.3469 20.7187C29.9929 19.5114 30.6863 18.241 31.8926 17.8865C32.4781 17.7145 33.0945 17.7813 33.6293 18.0732C34.1642 18.3651 34.5528 18.8468 34.7248 19.4323C34.8969 20.0178 34.8306 20.6332 34.5387 21.168C34.2468 21.7028 33.7645 22.0924 33.1791 22.2645Z" fill="#9FCE9E"/>
<path d="M63.5943 43.2454L65.2302 37.5866C66.3063 37.188 67.2561 36.4344 67.8475 35.3508C68.95 33.3308 68.5752 27.1525 68.4888 25.9351C68.434 25.1466 67.4667 24.6212 66.775 24.9997C65.7037 25.5866 60.3063 28.6132 59.2038 30.6332C58.6123 31.717 58.4922 32.9236 58.7391 34.0443L54.8651 38.4812C54.8326 38.5185 54.8238 38.568 54.7966 38.6083C54.762 38.6594 54.7134 38.6988 54.6869 38.7555L43.3599 63.1001C42.6516 64.6579 43.2743 66.5215 44.7774 67.3419C46.2815 68.1628 48.1858 67.6783 49.1186 66.2315L63.4599 43.5437C63.4933 43.4908 63.5001 43.4285 63.5243 43.3718C63.5436 43.3271 63.5805 43.2929 63.5943 43.2454ZM47.1642 64.9829C46.891 65.4054 46.331 65.5474 45.8886 65.306C45.4462 65.0645 45.2637 64.5172 45.4674 64.0684L56.2687 40.8549L60.8386 43.349L47.1642 64.9829ZM57.5628 38.9188L59.8768 36.2688C60.2403 36.6746 60.6614 37.0386 61.1661 37.3141C61.6712 37.5897 62.2055 37.747 62.7438 37.8332L61.7668 41.2133L57.5628 38.9188ZM62.2773 35.2782C61.0168 34.5902 60.5518 33.0049 61.2398 31.7444C61.695 30.9103 64.092 29.2678 66.2689 27.9646C66.3515 30.5011 66.2674 33.4046 65.8116 34.2396C65.1237 35.5002 63.5378 35.9661 62.2773 35.2782Z" fill="#9FCE9E"/>
</svg>
