<svg width="57" height="58" viewBox="0 0 57 58" fill="none" xmlns="http://www.w3.org/2000/svg">
<path d="M56.911 28.8631V21.555H44.944C45.218 21.281 45.4921 21.0069 45.6748 20.6415H47.3191C49.6029 20.6415 51.4299 18.8145 51.4299 16.5307C51.4299 14.2469 49.6029 12.4199 47.3191 12.4199H46.8623H45.9488H34.0732V16.9875C34.0732 18.8145 34.804 20.3675 35.9915 21.555H25.8516V28.8631H27.6786V27.0361H28.9575L30.7845 30.6902H32.2461V53.528C32.2461 54.5328 31.424 55.355 30.4191 55.355C29.4143 55.355 28.5921 54.5328 28.5921 53.528H26.7651C26.7651 55.5377 28.4094 57.182 30.4191 57.182C32.4288 57.182 34.0732 55.5377 34.0732 53.528V40.7388H48.6894V53.528C48.6894 55.5377 50.3337 57.182 52.3434 57.182C54.3531 57.182 55.9974 55.5377 55.9974 53.528H54.1704C54.1704 54.5328 53.3483 55.355 52.3434 55.355C51.3385 55.355 50.5164 54.5328 50.5164 53.528V30.6902H51.978L53.805 27.0361H55.0839V28.8631H56.911ZM47.3191 14.2469C48.598 14.2469 49.6029 15.2518 49.6029 16.5307C49.6029 17.8096 48.598 18.8145 47.3191 18.8145H46.5883C46.771 18.2664 46.8623 17.6269 46.8623 16.9875V14.2469H47.3191ZM35.9002 16.9875V14.2469H45.0353V16.9875C45.0353 19.5453 43.0256 21.555 40.4678 21.555C37.9099 21.555 35.9002 19.5453 35.9002 16.9875ZM34.0732 38.9118V37.0847H48.6894V38.9118H34.0732ZM48.6894 35.2577H34.0732V30.6902H48.6894V35.2577ZM50.8818 28.8631H31.8807L30.9672 27.0361H51.7953L50.8818 28.8631ZM27.6786 25.2091V23.3821H55.0839V25.2091H27.6786Z" fill="#8A8CDC"/>
<path d="M22.1977 54.4415C22.1977 54.9896 21.8323 55.355 21.2842 55.355C20.7361 55.355 20.3707 54.9896 20.3707 54.4415V39.8253H21.2842C22.2891 39.8253 23.1112 39.0031 23.1112 37.9983V36.1712C23.1112 35.1664 22.2891 34.3442 21.2842 34.3442H6.66802L5.75451 15.1605C5.75451 13.6075 4.56694 12.4199 3.01397 12.4199C1.461 12.4199 0.273438 13.6075 0.273438 15.1605V16.074H2.10046V15.1605C2.10046 14.6123 2.46587 14.2469 3.01397 14.2469C3.56208 14.2469 3.92748 14.6123 3.92748 15.1605L4.841 35.2577V39.8253H6.66802V54.4415C6.66802 54.9896 6.30262 55.355 5.75451 55.355C5.2064 55.355 4.841 54.9896 4.841 54.4415V53.528H3.01397V54.4415C3.01397 55.9944 4.20154 57.182 5.75451 57.182C7.30748 57.182 8.49504 55.9944 8.49504 54.4415V39.8253H18.5437V54.4415C18.5437 55.9944 19.7312 57.182 21.2842 57.182C22.8372 57.182 24.0247 55.9944 24.0247 54.4415V53.528H22.1977V54.4415ZM6.66802 36.1712H21.2842V37.9983H6.66802V36.1712Z" fill="#8A8CDC"/>
<path d="M36.8159 5.65997C36.2677 6.20808 35.9023 7.03024 35.9023 7.8524C35.9023 8.67456 36.2677 9.49672 36.8159 10.0448L38.0034 11.2324L39.2823 9.95348L38.0948 8.76591C37.8207 8.49186 37.7294 8.2178 37.7294 7.8524C37.7294 7.487 37.8207 7.21294 38.0948 6.93889L38.6429 6.39078C39.191 5.84267 39.5564 5.02051 39.5564 4.19835C39.5564 3.37619 39.191 2.55403 38.6429 2.00592L37.4553 0.818359L36.1764 2.09728L37.364 3.28484C37.638 3.55889 37.7294 3.83295 37.7294 4.19835C37.7294 4.56376 37.638 4.83781 37.364 5.11186L36.8159 5.65997Z" fill="#8A8CDC"/>
<path d="M42.2963 5.65997C41.7482 6.20808 41.3828 7.03024 41.3828 7.8524C41.3828 8.67456 41.7482 9.49672 42.2963 10.0448L43.4839 11.2324L44.7628 9.95348L43.5752 8.76591C43.3012 8.49186 43.2098 8.2178 43.2098 7.8524C43.2098 7.487 43.3012 7.21294 43.5752 6.93889L44.1233 6.39078C44.6715 5.84267 45.0369 5.02051 45.0369 4.19835C45.0369 3.37619 44.6715 2.55403 44.1233 2.00592L42.9358 0.818359L41.6569 2.09728L42.8444 3.28484C43.1185 3.55889 43.2098 3.83295 43.2098 4.19835C43.2098 4.56376 43.1185 4.83781 42.8444 5.11186L42.2963 5.65997Z" fill="#8A8CDC"/>
</svg>
