<svg width="57" height="53" viewBox="0 0 57 53" fill="none" xmlns="http://www.w3.org/2000/svg">
<path d="M54.2521 37.6576C53.4778 33.5928 49.897 30.6895 45.7354 30.6895H38.9609C34.7994 30.6895 31.2185 33.6896 30.4443 37.6576C29.3797 37.9479 28.6055 38.9157 28.6055 40.0771C28.6055 40.7545 28.8958 41.3352 29.2829 41.8191C28.8958 42.303 28.6055 42.8837 28.6055 43.5611C28.6055 44.7225 29.3797 45.6903 30.4443 45.9806C31.2185 50.0454 34.7994 52.9487 38.9609 52.9487H45.7354C49.897 52.9487 53.4778 49.9486 54.2521 45.9806C55.3166 45.6903 56.0909 44.7225 56.0909 43.5611C56.0909 42.8837 55.8005 42.303 55.4134 41.8191C55.8005 41.3352 56.0909 40.7545 56.0909 40.0771C56.0909 39.0125 55.3166 37.9479 54.2521 37.6576ZM38.9609 32.4315H45.7354C48.9292 32.4315 51.639 34.5606 52.51 37.5608H52.2197L52.0261 37.3672C51.5422 36.8833 50.9615 36.6898 50.3809 36.6898H49.897C49.3163 36.6898 48.7356 36.8833 48.2517 37.3672C48.1549 37.464 47.9614 37.5608 47.8646 37.5608H47.3807C47.1871 37.5608 47.0904 37.464 46.9936 37.3672C46.5097 36.8833 45.929 36.6898 45.3483 36.6898H44.8644C44.2838 36.6898 43.7031 36.8833 43.2192 37.3672C43.1224 37.464 42.9288 37.5608 42.8321 37.5608H42.3482C42.1546 37.5608 42.0578 37.464 41.961 37.3672C41.4772 36.8833 40.8965 36.6898 40.3158 36.6898H39.8319C39.2512 36.6898 38.6705 36.8833 38.1866 37.3672C38.0899 37.464 37.8963 37.5608 37.7995 37.5608H37.3156C37.1221 37.5608 37.0253 37.464 36.9285 37.3672C36.4446 36.8833 35.8639 36.6898 35.2833 36.6898H34.7994C34.2187 36.6898 33.638 36.8833 33.1541 37.3672L32.5734 37.5608H32.2831C33.0573 34.5606 35.7672 32.4315 38.9609 32.4315ZM31.2185 39.3028H33.2509L33.9283 38.6254C34.0251 38.5286 34.2187 38.4318 34.3155 38.4318H34.7994C34.9929 38.4318 35.0897 38.5286 35.1865 38.6254C35.6704 39.1093 36.2511 39.3028 36.8317 39.3028H37.4124C37.9931 39.3028 38.5738 39.1093 39.0577 38.6254C39.1544 38.5286 39.348 38.4318 39.4448 38.4318H39.9287C40.1222 38.4318 40.219 38.5286 40.3158 38.6254C40.7997 39.1093 41.3804 39.3028 41.961 39.3028H42.4449C43.0256 39.3028 43.6063 39.1093 44.0902 38.6254C44.187 38.5286 44.3805 38.4318 44.4773 38.4318H45.1548C45.3483 38.4318 45.4451 38.5286 45.5419 38.6254C46.0258 39.1093 46.6065 39.3028 47.1871 39.3028H47.671C48.2517 39.3028 48.8324 39.1093 49.3163 38.6254C49.4131 38.5286 49.6066 38.4318 49.7034 38.4318H50.1873C50.3809 38.4318 50.4776 38.5286 50.5744 38.6254L51.2519 39.3028H53.2843C53.7682 39.3028 54.1553 39.69 54.1553 40.1739C54.1553 40.6577 53.7682 41.0449 53.2843 41.0449H31.2185C30.7346 41.0449 30.3475 40.6577 30.3475 40.1739C30.3475 39.69 30.7346 39.3028 31.2185 39.3028ZM45.7354 51.3035H38.9609C35.7672 51.3035 33.0573 49.1743 32.1863 46.1742H52.4132C51.639 49.1743 48.9292 51.3035 45.7354 51.3035ZM53.4778 44.4321H31.2185C30.7346 44.4321 30.3475 44.045 30.3475 43.5611C30.3475 43.0772 30.7346 42.6901 31.2185 42.6901H53.5746C54.0585 42.6901 54.4456 43.0772 54.4456 43.5611C54.3488 44.045 53.9617 44.4321 53.4778 44.4321Z" fill="#57B6BB"/>
<path d="M29.477 46.4047H25.993V21.4443H37.3162V29.8554C37.6065 29.8554 37.8968 29.8554 38.1872 29.8554C38.5743 29.8554 38.8646 29.8554 39.155 29.9522V21.5411H40.9938C41.4777 21.5411 41.9616 21.0572 41.9616 20.5733V11.9599C41.9616 11.476 41.4777 10.9921 40.9938 10.9921H30.2513C31.1223 10.0243 31.703 8.66941 31.703 7.21772C31.703 4.12077 29.1867 1.60451 26.0897 1.60451C24.2509 1.60451 22.6057 2.47552 21.6379 3.83043C20.5733 1.89484 18.5409 0.636719 16.2182 0.636719C12.8309 0.636719 10.1211 3.34653 10.1211 6.73382C10.1211 8.37907 10.7986 9.83079 11.8631 10.9921H1.60451C1.12062 10.9921 0.636719 11.476 0.636719 11.9599V20.3798C0.636719 20.8637 1.12062 21.3476 1.60451 21.3476H3.44333V47.2757C3.44333 47.7596 3.92722 48.2435 4.41112 48.2435H30.1545C29.8641 47.6628 29.6706 47.0822 29.477 46.4047ZM40.1228 12.9277V19.5087H25.993V12.9277H40.1228ZM22.3153 7.31453C22.3153 5.18538 23.9606 3.54011 26.0897 3.54011C28.2189 3.54011 29.8641 5.18538 29.8641 7.31453C29.8641 9.44368 28.2189 11.0889 26.0897 11.0889H22.3153V7.31453ZM16.1214 2.57231C18.4442 2.57231 20.3797 4.41115 20.3797 6.83063V11.0889H16.1214C13.7987 11.0889 11.8631 9.25012 11.8631 6.83063C11.9599 4.50792 13.7987 2.57231 16.1214 2.57231ZM16.6053 46.4047H5.37892V21.4443H16.7021V46.4047H16.6053ZM16.6053 19.5087H2.47553V12.9277H16.6053V19.5087ZM24.1541 46.4047H18.5409V21.4443H24.1541V46.4047ZM24.1541 19.5087H18.5409V12.9277H24.1541V19.5087Z" fill="#57B6BB"/>
</svg>
