<svg width="124" height="125" viewBox="0 0 124 125" fill="none" xmlns="http://www.w3.org/2000/svg">
<path d="M105.925 105.925C81.725 130.125 42.525 130.125 18.225 105.925C-6.075 81.625 -6.075 42.425 18.225 18.225C42.425 -6.075 81.625 -6.075 105.925 18.225C130.025 42.425 130.025 81.625 105.925 105.925Z" fill="#B3D9F3"/>
<path d="M79.3234 40.0249L78.7234 67.4249C78.7234 67.4249 75.3234 71.6249 61.9234 71.6249C48.7234 71.6249 46.6234 66.8249 46.6234 66.8249L46.1234 41.6249C45.5234 41.7249 46.8234 41.6249 46.1234 41.6249C39.0234 41.7249 32.0234 36.0249 32.0234 28.9249C32.0234 21.8249 37.8234 16.0249 44.9234 16.0249C46.7234 16.0249 48.5234 16.4249 50.1234 17.1249C52.2234 12.9249 56.7234 10.0249 61.7234 10.0249C66.5234 10.0249 70.4234 12.7249 72.7234 16.6249C74.8234 15.0249 77.4234 14.2249 80.3234 14.2249C87.4234 14.2249 93.2234 19.9249 93.2234 27.1249C93.3234 34.2249 86.5234 40.0249 79.3234 40.0249C79.9234 40.0249 78.9234 40.0249 79.3234 40.0249Z" fill="white"/>
<path d="M27.7266 56.7251C27.7266 55.6251 27.6266 54.7251 27.5266 54.2251C27.3266 53.0251 26.7266 51.9251 25.7266 51.0251C24.7266 50.1251 23.6266 49.7251 22.2266 49.7251C20.8266 49.7251 19.5266 50.2251 18.5266 51.2251C17.4266 50.2251 16.2266 49.7251 14.8266 49.7251C13.5266 49.7251 12.2266 50.2251 11.3266 51.0251C10.4266 51.8251 9.72656 52.8251 9.42656 54.2251C9.32656 54.8251 9.22656 55.6251 9.22656 56.7251V65.3251C9.22656 65.8251 9.62656 66.0251 9.92656 66.0251C10.4266 66.0251 10.6266 65.6251 10.6266 65.3251V56.4251C10.6266 54.8251 10.9266 53.5251 11.6266 52.5251C12.3266 51.4251 13.4266 50.9251 14.9266 50.9251C16.0266 50.9251 16.9266 51.3251 17.7266 52.1251C17.0266 53.3251 16.7266 54.6251 16.7266 56.4251V65.2251C16.7266 65.6251 17.0266 65.9251 17.4266 65.9251C17.9266 65.9251 18.1266 65.5251 18.1266 65.2251V56.3251C18.1266 55.0251 18.3266 54.0251 18.6266 53.3251C18.9266 54.1251 19.1266 55.3251 19.1266 56.7251V65.3251C19.1266 65.7251 19.4266 66.0251 19.8266 66.0251C20.3266 66.0251 20.5266 65.6251 20.5266 65.3251V56.1251C20.5266 54.3251 20.2266 53.0251 19.5266 52.0251C20.2266 51.3251 21.1266 50.9251 22.2266 50.9251C23.2266 50.9251 24.1266 51.2251 24.8266 51.8251C25.5266 52.3251 26.0266 53.1251 26.3266 54.1251C26.5266 54.7251 26.5266 55.4251 26.5266 56.4251V65.3251C26.5266 65.7251 26.8266 66.0251 27.2266 66.0251C27.7266 66.0251 27.9266 65.6251 27.9266 65.3251L27.8266 64.8251V56.7251H27.7266Z" fill="black"/>
<path d="M43.9266 52.2252C42.3266 50.6252 40.3266 49.8252 38.0266 49.8252C35.7266 49.8252 33.7266 50.6252 32.1266 52.2252C30.5266 53.8252 29.7266 55.8252 29.7266 58.1252C29.7266 60.4252 30.5266 62.4252 32.2266 64.0252C33.9266 65.6252 35.9266 66.4252 38.2266 66.4252C39.9266 66.4252 41.5266 65.9252 42.8266 65.0252V65.2252C42.8266 65.9252 43.2266 66.1252 43.5266 66.1252C43.8266 66.1252 44.2266 65.8252 44.2266 65.2252V63.9252C45.8266 62.2252 46.6266 60.3252 46.6266 58.1252C46.4266 55.7252 45.5266 53.7252 43.9266 52.2252ZM42.6266 58.2252V63.4252C41.2266 64.6252 39.7266 65.2252 38.0266 65.2252C36.1266 65.2252 34.4266 64.5252 33.1266 63.1252C31.7266 61.8252 31.1266 60.2252 31.1266 58.2252C31.1266 56.2252 31.8266 54.6252 33.2266 53.2252C34.6266 51.8252 36.2266 51.1252 38.2266 51.1252C40.1266 51.1252 41.8266 51.8252 43.1266 53.2252C44.4266 54.6252 45.2266 56.2252 45.2266 58.1252C45.2266 59.5252 44.8266 60.7252 44.1266 61.8252V58.2252C43.9266 57.2252 42.6266 57.2252 42.6266 58.2252Z" fill="black"/>
<path d="M55.425 66.4248C57.325 66.4248 59.125 65.8248 60.725 64.5248C61.125 64.2248 61.425 64.0248 61.625 63.7248H61.725V63.6248C61.825 63.5248 61.825 63.4248 61.825 63.2248C61.825 62.9248 61.625 62.6248 61.225 62.6248H60.825L60.725 62.8248V63.0248C60.025 63.6248 59.225 64.2248 58.425 64.6248C57.525 65.0248 56.525 65.3248 55.625 65.3248C53.625 65.3248 52.025 64.6248 50.725 63.2248C49.325 61.8248 48.625 60.2248 48.625 58.2248C48.625 56.3248 49.325 54.6248 50.725 53.3248C52.025 51.9248 53.625 51.3248 55.625 51.3248C57.525 51.3248 59.225 52.0248 60.625 53.4248L60.925 53.6248H61.325L61.425 53.5248C61.625 53.4248 61.725 53.2248 61.725 53.0248V52.8248L61.625 52.7248C61.625 52.7248 61.625 52.6248 61.525 52.6248C61.425 52.5248 61.425 52.4248 61.325 52.4248C59.825 50.8248 57.825 49.9248 55.425 49.9248C53.125 49.9248 51.125 50.7248 49.525 52.3248C47.925 53.9248 47.125 55.9248 47.125 58.2248C47.125 60.4248 47.925 62.4248 49.525 64.1248C51.225 65.6248 53.225 66.4248 55.425 66.4248Z" fill="black"/>
<path d="M76.0281 52.2252C74.4281 50.6252 72.4281 49.8252 70.1281 49.8252C67.8281 49.8252 65.8281 50.6252 64.2281 52.2252C62.6281 53.8252 61.8281 55.8252 61.8281 58.1252C61.8281 60.4252 62.6281 62.4252 64.2281 64.0252C65.9281 65.6252 67.9281 66.4252 70.2281 66.4252C71.9281 66.4252 73.5281 65.9252 74.8281 65.0252V65.2252C74.8281 65.9252 75.2281 66.1252 75.5281 66.1252C75.8281 66.1252 76.2281 65.8252 76.2281 65.2252V63.9252C77.8281 62.2252 78.6281 60.3252 78.6281 58.1252C78.5281 55.6252 77.7281 53.7252 76.0281 52.2252ZM74.7281 58.2252V63.4252C73.3281 64.6252 71.8281 65.2252 70.1281 65.2252C68.2281 65.2252 66.5281 64.5252 65.1281 63.1252C63.7281 61.8252 63.1281 60.2252 63.1281 58.2252C63.1281 56.2252 63.8281 54.6252 65.2281 53.2252C66.6281 51.8252 68.2281 51.1252 70.2281 51.1252C72.1281 51.1252 73.8281 51.8252 75.1281 53.2252C76.5281 54.6252 77.2281 56.2252 77.2281 58.1252C77.2281 59.5252 76.8281 60.8252 76.1281 61.9252V58.3252C76.0281 57.2252 74.7281 57.2252 74.7281 58.2252Z" fill="black"/>
<path d="M80.6258 66.1249C81.1258 66.1249 81.3258 65.7249 81.3258 65.4249V58.9249C81.3258 57.2249 81.4258 56.2249 81.6258 55.5249C81.9258 54.4249 82.5258 53.5249 83.3258 52.8249C84.1258 52.1249 85.0258 51.7249 86.0258 51.4249C86.5258 51.4249 86.7258 51.0249 86.7258 50.7249C86.7258 50.2249 86.4258 50.1249 86.2258 50.0249H86.1258H86.0258C85.5258 50.0249 84.9258 50.2249 84.2258 50.6249C83.0258 51.2249 82.0258 52.0249 81.3258 53.1249C81.3258 52.5249 81.3258 51.7249 81.3258 50.8249C81.3258 49.8249 79.9258 49.8249 79.9258 50.8249V65.4249C79.9258 65.8249 80.2258 66.1249 80.6258 66.1249Z" fill="black"/>
<path d="M101.227 52.2252C99.6273 50.6252 97.6273 49.8252 95.3273 49.8252C93.0273 49.8252 91.0273 50.6252 89.4273 52.2252C87.8273 53.8252 87.0273 55.8252 87.0273 58.1252C87.0273 60.4252 87.8273 62.4252 89.4273 64.0252C91.1273 65.6252 93.1273 66.4252 95.4273 66.4252C97.7273 66.4252 99.7273 65.6252 101.327 63.9252C102.927 62.2252 103.727 60.2252 103.727 57.9252C103.727 55.7252 102.927 53.7252 101.227 52.2252ZM95.3273 51.1252C97.2273 51.1252 98.9273 51.8252 100.227 53.2252C101.627 54.6252 102.327 56.2252 102.327 58.1252C102.327 60.1252 101.627 61.8252 100.127 63.1252C98.8273 64.5252 97.2273 65.1252 95.2273 65.1252C93.3273 65.1252 91.6273 64.4252 90.3273 63.0252C88.9273 61.6252 88.2273 60.0252 88.2273 58.1252C88.2273 56.1252 88.9273 54.5252 90.3273 53.1252C91.6273 51.7252 93.3273 51.1252 95.3273 51.1252Z" fill="black"/>
<path d="M116.725 54.025C116.525 52.825 115.925 51.825 114.825 50.925C113.825 50.125 112.625 49.625 111.325 49.625C110.325 49.625 109.425 49.825 108.625 50.325C108.025 50.725 107.425 51.125 107.025 51.725V50.725C107.025 49.725 105.625 49.725 105.625 50.725V65.325C105.625 65.825 106.025 66.025 106.325 66.025C106.825 66.025 107.025 65.625 107.025 65.325V57.025C107.025 56.125 107.025 55.325 107.125 54.925C107.325 53.725 107.725 52.825 108.425 52.125C109.225 51.425 110.225 51.025 111.225 51.025C112.025 51.025 112.825 51.225 113.425 51.625C114.325 52.125 114.925 52.925 115.125 53.925C115.325 54.525 115.325 55.625 115.325 57.025V65.325C115.325 65.725 115.625 66.025 116.025 66.025C116.225 66.025 116.425 65.925 116.525 65.825H116.825V56.325C116.925 55.425 116.825 54.625 116.725 54.025Z" fill="black"/>
<path d="M40.5273 85.3252C39.8273 85.3252 39.7273 85.7252 39.7273 86.0252C39.7273 86.5252 40.1273 86.7252 40.4273 86.7252C41.2273 86.7252 41.8273 86.9252 42.5273 87.3252C43.8273 88.0252 44.5273 89.2252 44.5273 90.7252C44.5273 91.8252 44.1273 92.7252 43.3273 93.5252C42.5273 94.3252 41.6273 94.7252 40.5273 94.7252C38.9273 94.7252 37.8273 94.0252 36.9273 92.6252C36.6273 92.2252 36.4273 91.6252 36.4273 90.9252C36.4273 90.4252 36.1273 90.1252 35.7273 90.1252C35.2273 90.1252 35.0273 90.5252 35.0273 90.8252C35.0273 92.2252 35.6273 93.5252 36.7273 94.4252C37.7273 95.4252 39.0273 95.9252 40.4273 95.9252C41.9273 95.9252 43.2273 95.4252 44.2273 94.3252C45.2273 93.3252 45.8273 92.0252 45.8273 90.5252C45.8273 89.0252 45.3273 87.8252 44.3273 86.8252C43.3273 85.9252 42.0273 85.3252 40.5273 85.3252Z" fill="black"/>
<path d="M40.225 81.1252C41.525 81.1252 42.425 81.6252 43.025 82.7252C43.125 82.9252 43.325 83.3252 43.425 83.7252C43.425 84.2252 43.725 84.5252 44.125 84.5252C44.525 84.5252 44.825 84.2252 44.825 83.8252C44.825 82.6252 44.225 81.6252 43.225 81.0252C42.325 80.2252 41.325 79.8252 40.125 79.8252C38.925 79.8252 37.825 80.2252 36.925 81.1252C36.125 82.1252 35.625 83.1252 35.625 84.3252C35.625 85.5252 36.025 86.6252 36.925 87.5252C37.725 88.4252 38.825 88.9252 40.025 88.9252C40.525 88.9252 40.825 88.6252 40.825 88.2252C40.825 87.8252 40.525 87.5252 40.125 87.5252C39.225 87.5252 38.525 87.2252 37.925 86.6252C37.325 86.0252 37.025 85.2252 37.025 84.3252C37.025 83.4252 37.325 82.6252 37.925 82.0252C38.725 81.4252 39.425 81.1252 40.225 81.1252Z" fill="black"/>
<path d="M57.9273 86.5252C57.9273 85.4252 57.8273 84.6252 57.7273 84.1252C57.4273 82.8252 56.8273 81.8252 55.9273 81.1252C54.9273 80.2252 53.9273 79.8252 52.6273 79.8252C51.7273 79.8252 50.8273 80.0252 50.0273 80.5252C49.3273 80.8252 48.8273 81.3252 48.4273 81.8252V75.8252C48.4273 74.8252 47.0273 74.8252 47.0273 75.8252V94.9252C47.0273 95.4252 47.4273 95.6252 47.7273 95.6252C48.2273 95.6252 48.4273 95.2252 48.4273 94.9252V86.9252C48.4273 86.3252 48.4273 85.8252 48.5273 85.4252C48.5273 85.1252 48.5273 84.9252 48.5273 84.8252C48.7273 83.7252 49.1273 82.8252 49.8273 82.1252C50.6273 81.4252 51.4273 81.1252 52.6273 81.1252C53.4273 81.1252 54.2273 81.3252 54.8273 81.7252C55.7273 82.3252 56.2273 83.0252 56.4273 83.9252C56.6273 84.5252 56.6273 85.5252 56.6273 86.9252V94.9252C56.6273 95.3252 56.9273 95.6252 57.3273 95.6252C57.8273 95.6252 58.0273 95.2252 58.0273 94.9252L57.9273 94.4252V86.5252Z" fill="black"/>
<path d="M73.3273 82.1251C71.7273 80.5251 69.8273 79.7251 67.6273 79.7251C65.4273 79.7251 63.4273 80.5251 61.9273 82.1251C60.3273 83.7251 59.5273 85.6251 59.5273 87.8251C59.5273 90.0251 60.3273 92.0251 61.9273 93.5251C63.5273 95.1251 65.4273 95.9251 67.7273 95.9251C70.0273 95.9251 71.9273 95.1251 73.4273 93.5251C75.0273 91.9251 75.8273 90.0251 75.8273 87.7251C75.8273 85.4251 75.0273 83.6251 73.3273 82.1251ZM62.8273 92.6251C61.5273 91.3251 60.8273 89.7251 60.8273 87.8251C60.8273 85.9251 61.5273 84.3251 62.8273 82.9251C64.1273 81.6251 65.7273 80.9251 67.7273 80.9251C69.5273 80.9251 71.2273 81.6251 72.5273 82.9251C73.8273 84.2251 74.5273 85.8251 74.5273 87.7251C74.5273 89.6251 73.8273 91.3251 72.4273 92.6251C71.1273 93.9251 69.5273 94.6251 67.6273 94.6251C65.8273 94.6251 64.1273 93.9251 62.8273 92.6251Z" fill="black"/>
<path d="M85.225 79.7251C82.925 79.7251 81.025 80.5251 79.525 82.1251C78.025 83.7251 77.125 85.6251 77.125 87.8251C77.125 90.0251 77.925 91.9251 79.425 93.5251V100.025C79.425 100.425 79.725 100.725 80.125 100.725C80.625 100.725 80.825 100.325 80.825 100.025V94.7251C82.125 95.6251 83.625 96.0251 85.225 96.0251C87.525 96.0251 89.525 95.2251 91.025 93.7251C92.625 92.1251 93.525 90.3251 93.525 88.0251C93.525 85.7251 92.625 83.8251 91.025 82.2251C89.425 80.5251 87.525 79.7251 85.225 79.7251ZM80.125 87.1251C79.825 87.1251 79.425 87.4251 79.425 87.9251V91.3251C78.825 90.3251 78.525 89.1251 78.525 87.8251C78.525 86.0251 79.225 84.3251 80.525 83.0251C81.925 81.6251 83.525 81.0251 85.425 81.0251C87.325 81.0251 88.925 81.7251 90.325 83.0251C91.625 84.3251 92.325 85.9251 92.325 87.9251C92.325 89.8251 91.625 91.4251 90.225 92.7251C88.925 94.0251 87.325 94.7251 85.425 94.7251C83.725 94.7251 82.225 94.1251 80.925 92.9251V87.9251C80.825 87.2251 80.425 87.1251 80.125 87.1251Z" fill="black"/>
<path d="M56.7266 102.325V109.525L63.2266 105.825L56.7266 102.325Z" fill="black"/>
<path d="M69.4258 102.325V109.525L62.9258 105.825L69.4258 102.325Z" fill="black"/>
</svg>
