<svg width="94" height="102" viewBox="0 0 94 102" fill="none" xmlns="http://www.w3.org/2000/svg">
<g clip-path="url(#clip0_1676_21384)">
<path d="M60.211 84.8848C57.2704 93.9297 42.6147 97.2608 27.4682 92.3364C12.2732 87.3168 2.37861 76.004 5.29592 67.0309C5.45929 66.5284 5.69444 66.0493 5.90626 65.6419C9.83385 57.7117 23.7303 55.0068 38.0872 59.6745C52.4441 64.3422 62.0929 74.7021 60.5826 83.4976C60.466 83.8565 60.3744 84.3823 60.211 84.8848Z" fill="#F7AD1A"/>
<path d="M60.5364 83.4027C59.4523 85.2726 57.3362 86.4102 55.2722 88.1203C53.2081 89.8304 50.7098 90.9231 47.8384 89.9895C46.4027 89.5228 44.6368 89.5836 43.113 90.12C40.6847 90.9974 37.8887 90.5646 35.6832 89.2919C33.7415 88.1844 31.3259 87.5578 28.939 87.5755C25.0715 87.5087 22.1732 86.1695 19.7435 83.6334C17.5542 81.3342 15.0114 79.6343 12.4972 78.5788C8.78593 77.0547 7.14584 74.7753 6.69037 71.2936C6.43576 69.1471 5.65885 67.3865 5.83672 65.6187C9.76431 57.6885 23.6608 54.9836 38.0176 59.6513C52.3979 64.2472 62.0467 74.6071 60.5364 83.4027Z" fill="#EE8034"/>
<path d="M61.7078 80.2908C60.891 82.8033 58.4411 83.9911 56.045 85.9901C53.981 87.7002 51.4827 88.7929 48.6113 87.8594C47.1756 87.3926 45.4096 87.4534 43.8859 87.9899C41.3858 88.8439 38.6616 88.4344 36.456 87.1617C34.5143 86.0542 32.0988 85.4276 29.7118 85.4453C25.8443 85.3785 22.9461 84.0393 20.5164 81.5032C18.3271 79.204 15.7842 77.5042 13.2467 76.5204C9.46367 74.973 7.84692 72.6218 7.39145 69.1401C7.08662 66.6598 6.11593 64.5187 6.79275 62.4369C9.3133 54.6842 23.6189 52.4298 38.7654 57.3543C53.9119 62.2787 64.2284 72.5381 61.7078 80.2908Z" fill="#F7ADBB"/>
<path d="M63.44 75.6945C60.4993 84.7393 45.867 87.9987 30.7205 83.0743C15.574 78.1498 5.67939 66.837 8.5967 57.8639C8.87676 57.0025 9.30039 56.1878 9.79581 55.3964C14.3263 48.2971 27.6054 46.0265 41.2444 50.4608C54.9552 54.9184 64.3601 64.564 63.8979 73.0654C63.8565 73.925 63.7201 74.8331 63.44 75.6945Z" fill="#EE8034"/>
<path d="M63.7748 72.7083C59.1725 79.7842 45.8935 82.0549 32.1827 77.5972C18.5436 73.1629 9.1388 63.5173 9.57761 55.0878C14.2032 47.9401 27.4823 45.6695 41.1213 50.1038C54.8321 54.5614 64.237 64.207 63.7748 72.7083Z" fill="#F7AD1A"/>
<path d="M41.4284 55.9977C41.4765 59.2676 35.4569 61.9141 28.0575 61.9689C20.658 62.0238 14.5761 59.4908 14.5047 56.2927C14.4566 53.0228 20.4762 50.3763 27.8756 50.3215C35.2984 50.1948 41.357 52.7996 41.4284 55.9977Z" fill="#FFC928"/>
<path d="M46.3208 65.8435C46.0337 65.7501 45.8703 66.2526 46.1575 66.3459C46.5397 66.3909 46.6797 65.9601 46.3208 65.8435Z" fill="#EE8034"/>
<path d="M51.0515 63.0156C50.1183 62.7122 49.6282 64.2197 50.5614 64.5231C51.4946 64.8265 51.9847 63.319 51.0515 63.0156Z" fill="#EE8034"/>
<path d="M37.4538 67.2461C36.5206 66.9427 36.0538 68.3784 36.987 68.6818C37.9202 68.9852 38.4588 67.5728 37.4538 67.2461Z" fill="#EE8034"/>
<path d="M24.6426 65.3839L24.5708 65.3605C24.2837 65.2672 24.1203 65.7697 24.4075 65.863L24.4792 65.8864C24.7664 65.9797 24.9297 65.4772 24.6426 65.3839Z" fill="#EE8034"/>
<path d="M37.5139 62.4236C37.5139 62.4236 37.4421 62.4003 37.5139 62.4236C37.2968 62.1149 36.8211 62.3571 36.9665 62.6425C37.0867 62.7609 37.1351 62.8561 37.3505 62.9261C37.7094 63.0428 37.8728 62.5403 37.5139 62.4236Z" fill="#EE8034"/>
<path d="M44.1802 53.8767C43.8931 53.7833 43.7297 54.2858 44.0168 54.3791C44.304 54.4725 44.4673 53.97 44.1802 53.8767Z" fill="#EE8034"/>
<path d="M27.7004 68.9177L27.4851 68.8477C26.5519 68.5443 26.0851 69.98 27.0183 70.2834L27.2336 70.3534C28.2386 70.6801 28.7054 69.2444 27.7004 68.9177Z" fill="#EE8034"/>
<path d="M14.0507 56.4628C13.7618 56.1307 13.2844 56.1343 12.9524 56.4232C12.7621 56.5201 12.6203 56.7121 12.5503 56.9274C12.4103 57.3581 12.6759 57.762 13.0348 57.8787C13.3937 57.9954 13.7742 57.8016 13.9627 57.466C14.3432 57.2722 14.2912 56.6997 14.0507 56.4628Z" fill="#EE8034"/>
<path d="M44.5515 75.19C43.6183 74.8866 43.1282 76.394 44.0614 76.6974C45.0897 76.9524 45.5564 75.5167 44.5515 75.19Z" fill="#EE8034"/>
</g>
<path d="M81.9955 17.4272C81.8016 17.1377 81.4819 16.972 81.168 16.8262C80.0585 16.2973 78.908 15.813 77.6846 15.6317C76.4676 15.454 75.1642 15.5886 74.1224 16.2419C75.2611 14.1198 76.6222 12.1273 78.1752 10.2893C78.0572 10.1833 77.9327 10.0737 77.8148 9.96769C76.3787 10.9915 75.3125 12.4424 74.4311 13.9689C73.5498 15.4954 72.8268 17.0998 71.939 18.6228C72.7031 15.5443 72.2864 12.1909 70.792 9.38751C70.4362 9.5031 70.0839 9.61223 69.7281 9.72781C70.9026 10.7519 71.2434 12.3084 71.4463 13.8568C71.6427 15.4017 71.7406 16.9431 71.3759 18.4583L71.0168 20.2858C71.3705 18.8984 72.4152 18.1631 73.7263 17.5226C75.2278 16.7936 76.262 16.6461 77.8195 16.6749C78.9038 16.6968 81.1858 17.5465 81.8975 18.3603C82.1904 18.1603 82.1928 17.7102 81.9955 17.4272Z" fill="#E08CB8"/>
<path d="M71.0234 20.2798C70.9972 20.3742 70.9773 20.472 70.964 20.5734L71.0234 20.2798Z" fill="#E08CB8"/>
<path d="M72.642 16.9259L32.9601 48.756C32.9601 48.756 34.0786 53.1103 38.115 56.8547C41.3166 59.8268 47.443 63.2211 47.443 63.2211C47.443 63.2211 53.6186 66.5251 57.8524 67.6015C63.1878 68.96 67.4522 67.5367 67.4522 67.5367L72.642 16.9259Z" fill="#46A5AA"/>
<path d="M69.6983 28.549C70.1756 29.0095 70.7121 29.4688 71.2895 29.7916L71.616 26.6254C70.5807 25.8527 69.5044 25.1246 68.5652 24.2369C67.7979 23.5099 67.1332 22.6714 66.5926 21.7584L64.9153 23.1023C66.3507 25.0459 67.9577 26.874 69.6983 28.549Z" fill="#E08CB8"/>
<path d="M68.7789 50.78C68.8863 50.8134 69.0036 50.8438 69.1244 50.8678L69.4562 47.6459C66.9357 45.5128 64.0727 43.7784 61.6144 41.5621C58.525 38.768 56.136 35.2101 54.7031 31.2949L51.2471 34.0613C53.9586 37.1344 56.2067 40.5822 58.8912 43.6741C61.5851 46.7795 64.8452 49.5828 68.7789 50.78Z" fill="#E08CB8"/>
<path d="M68.4728 57.2009C68.3379 57.1107 68.1994 57.0269 68.0644 56.9367C63.5565 54.0893 59.0233 51.2113 55.0698 47.6375C51.8401 44.717 48.9863 41.2905 47.106 37.3825L43.0952 40.5991C48.3365 49.9068 56.8079 57.3702 66.7173 61.378C67.1226 61.5402 67.5614 61.6872 68.009 61.772L68.4728 57.2009Z" fill="#E08CB8"/>
<path d="M62.4517 26.4166C62.2813 26.1149 62.1215 25.7937 61.9651 25.4662L59.2801 27.6157C61.533 31.1162 64.0647 34.4426 66.8378 37.5409C67.8254 38.6471 68.8757 39.7457 70.2046 40.394L70.6019 36.514C67.3441 33.645 64.5695 30.2115 62.4517 26.4166Z" fill="#E08CB8"/>
<path d="M43.2734 57.6073C44.73 59.6042 46.1924 61.621 47.8487 63.4508C49.3379 64.2198 54.26 66.6909 57.8093 67.5952C58.6827 67.8199 59.5261 67.9615 60.3219 68.0521C60.1597 67.7046 59.9142 67.387 59.6646 67.0923C57.549 64.5693 54.8317 62.6132 52.5262 60.2544C48.1536 55.7752 45.3634 49.9422 41.0253 45.415C40.4605 44.8232 39.8623 44.2467 39.3485 43.6075L35.4291 46.7485C35.8943 47.4616 36.3965 48.153 36.8893 48.831C39.0171 51.7619 41.1485 54.6863 43.2734 57.6073Z" fill="#E08CB8"/>
<path opacity="0.34" d="M44.0208 45.1834C43.1198 45.9468 42.1808 46.7647 41.771 47.8708C41.3612 48.9769 41.6848 50.4572 42.7766 50.9263C43.5317 51.2455 44.4315 50.9914 45.083 50.5018C45.7345 50.0122 46.2058 49.3157 46.6665 48.6386C50.0239 43.7788 54.0908 39.4139 58.6939 35.7088C59.4819 35.0762 62.0014 32.2931 59.4061 32.4183C57.8945 32.4897 55.6102 35.3172 54.4889 36.27C51.0027 39.2456 47.51 42.2177 44.0208 45.1834Z" fill="white"/>
<path opacity="0.34" d="M61.3303 30.4228C61.2361 30.5805 61.1413 30.7546 61.1579 30.9392C61.1818 31.2949 61.5919 31.5099 61.9408 31.4992C62.6486 31.4749 63.1885 30.8828 63.6447 30.337C64.252 29.6059 67.6165 26.3467 64.8943 26.7204C63.2761 26.9261 62.0443 29.173 61.3303 30.4228Z" fill="white"/>
<path d="M80.4346 23.2405C80.8705 21.3795 80.1961 19.2985 78.7433 18.0477C77.2906 16.7969 75.1363 16.4348 73.3563 17.1376C74.2285 15.8737 75.3802 14.8037 76.7022 14.0354C77.4136 13.6202 78.2342 13.2812 79.0518 13.4087C79.0039 13.0816 78.946 12.7576 78.8982 12.4305C75.829 12.4732 72.8901 14.5513 71.8273 17.4253C71.9617 16.0104 71.1456 14.6047 69.9766 13.8009C68.8046 12.9873 67.3313 12.7117 65.9087 12.7732C65.6419 12.7867 65.3617 12.8097 65.149 12.9698C64.7371 13.2805 64.7883 13.8936 64.8727 14.3993C66.2557 13.6727 68.0591 13.8186 69.3156 14.7536C70.5722 15.6885 71.2209 17.371 70.9277 18.9084L71.4261 19.8987C72.2069 18.6184 73.8175 17.9656 75.3002 18.1626C76.7892 18.3631 78.1068 19.3397 78.8946 20.613C79.1561 21.0396 79.373 21.5171 79.3788 22.0136C79.3812 22.5164 79.1296 23.0399 78.6719 23.2505C79.2742 23.3276 79.8594 23.3286 80.4346 23.2405Z" fill="#46A5AA"/>
<defs>
<clipPath id="clip0_1676_21384">
<rect width="57.971" height="44.3085" fill="white" transform="translate(13.6992 41.1885) rotate(18.0103)"/>
</clipPath>
</defs>
</svg>
